<svg xmlns="http://www.w3.org/2000/svg" width="175.434" height="175.475" viewBox="0 0 175.434 175.475">
  <g id="Сгруппировать_24" data-name="Сгруппировать 24" transform="translate(-266.598 -230.869)">
    <path id="Контур_50" data-name="Контур 50" d="M439.069,390.171s-4.821-59.2-20.291-61.72-8.381,31.8-24.272,30.438-31.306-12.934-36.8-3.336-4.453,21.1-20.511,17.577-19.41,17.041-19.41,17.041Z" transform="translate(-5.549 -10.563)" fill="#91c9ba"/>
    <path id="Контур_51" data-name="Контур 51" d="M359.508,395.327h64.878c13.543,0,17.646,4.566,17.646,9.105s-8.207,10.285-20.929,10.285-37.273,1.353-42.473,4.308c-12.589,7.152-30.983,5.13-38.78,3.694s-45.312-10.465-51.673-10.465-21.579,1.026-21.579-8.1C266.6,391.967,343.258,395.327,359.508,395.327Z" transform="translate(0 -17.781)" fill="#e0efff"/>
    <g id="Сгруппировать_19" data-name="Сгруппировать 19" transform="translate(284.615 294.401)">
      <path id="Контур_52" data-name="Контур 52" d="M295.463,391.33s-2.223,2.052-2.7,3.9-.308,1.949.171,2.189,1.88,1.3,1.846,2.428-3.459.82-4.7.615-3.195-2.564-3.263-4.138.581-6.087.342-8.583,1.163-7.09,2.052-7.495a4.125,4.125,0,0,1,2.53.3s5.062,3.162,5.335,3.572S295.463,391.33,295.463,391.33Z" transform="translate(-286.805 -310.579)" fill="#3e5359"/>
      <path id="Контур_53" data-name="Контур 53" d="M347.96,390.361s1.914,4.617,3.556,6.292,4.719,3.728,5.848,3.968,3.557,3.009,1.2,3.009H343.89c-2.564,0-3.488-.821-3.146-3.352s1.709-8.481,1.128-9.576S347.96,390.361,347.96,390.361Z" transform="translate(-292.645 -311.662)" fill="#3e5359"/>
      <path id="Контур_54" data-name="Контур 54" d="M315.051,358.271s17.2-9.541,22.019-4.822,7.387,33.035,7.387,33.035l-9.233.719-7.182-17.532-10.607,6.624s7.016,18.6,5.477,21.579-4.232,4.412-8.836,4.412-18.762-13.132-18.762-13.132-.923-6.668,1.436-8.72c-2.093-4.26-5.745-6.567-2.359-11.8S315.051,358.271,315.051,358.271Z" transform="translate(-287.478 -307.546)" fill="#96675f"/>
      <path id="Контур_55" data-name="Контур 55" d="M319.224,368.28s3.129,11.49,3.539,12.926.616,7.9,0,8.311a9.974,9.974,0,0,1-2.257.718c-.257.1-.615-3.129-.615-3.129s-.154,2.924-.411,2.462a28.719,28.719,0,0,1-.546-4.257,15.644,15.644,0,0,1,0-3.59c.135-2.36-4.584-11.234-4.584-11.234Z" transform="translate(-289.791 -309.296)" fill="#ffbbad"/>
      <path id="Контур_56" data-name="Контур 56" d="M341.908,317.2s9.49-6.361,11.234-8a66.077,66.077,0,0,0,5.027-5.027c1.129-1.386,3.488-2.258,3.642-2s-1.9,1.846-2.154,2.154-.1,2.77-.154,4-.154,2.462-1.487,2.668-2.411.1-2.719.513-12.414,11.132-12.414,11.132Z" transform="translate(-292.778 -302.125)" fill="#ffbbad"/>
      <path id="Контур_57" data-name="Контур 57" d="M314.827,326.958s.768,1.815,4.273.375,18.277-10.327,18.277-10.327,1.878,4.257,1.69,7.761c0,0-21.156,17.776-21.907,19.778s-.814,12.08-.814,12.08l2.817,5.7s-4.819,4.318-7.636,5.007c-2.191-2.5-4.381-5.633-5.133-5.7s-6.446,3.13-8.512,6.635-3.254,4.381-4.444,4.193-4.507-.751-2.128-6.384,2.566-14.71,3.38-20.53a29.973,29.973,0,0,1,5.508-14.271c2.817-3.693,3.139-6.65,5.861-6.822S313.934,325.769,314.827,326.958Z" transform="translate(-287.203 -303.738)" fill="#3ba4c4"/>
      <path id="Контур_58" data-name="Контур 58" d="M306.871,328.467a11.936,11.936,0,0,0,2.206,3.335c1.385,1.385,2.828,5.438,3.953,4.924s2.548-3.436,2.548-3.436" transform="translate(-288.98 -304.98)" fill="none" stroke="#26697d" stroke-miterlimit="10" stroke-width="0.233"/>
      <path id="Контур_59" data-name="Контур 59" d="M319.01,333.4c.359,1.487-.1,3.642.616,2.77s-.133-5.46-.308-6.207" transform="translate(-290.296 -305.142)" fill="none" stroke="#26697d" stroke-miterlimit="10" stroke-width="0.233"/>
      <path id="Контур_60" data-name="Контур 60" d="M321.777,336.656a14.264,14.264,0,0,0-1.06,3.728c-.068,1.436.171,2.6,0,3.42s-.313,2.872-.313,2.872" transform="translate(-290.447 -305.868)" fill="none" stroke="#26697d" stroke-miterlimit="10" stroke-width="0.233"/>
      <path id="Контур_61" data-name="Контур 61" d="M318.48,358.878s-2.908-6.575-3.524-7.737-2.783-7.045-3.375-8.344a32.934,32.934,0,0,1-1.413-5.017" transform="translate(-289.338 -305.99)" fill="none" stroke="#26697d" stroke-miterlimit="10" stroke-width="0.233"/>
      <path id="Контур_62" data-name="Контур 62" d="M307.447,363.564c-2.326-2.485-4.378-5.289-4.925-8.641s-1.417-8.891-1.734-10.4-1.549-7.728.845-9.712" transform="translate(-288.256 -305.668)" fill="none" stroke="#26697d" stroke-miterlimit="10" stroke-width="0.233"/>
      <path id="Контур_63" data-name="Контур 63" d="M309.568,397.67c-1.9.051-4.207-2.565-5.335-3.232s-2.873-4.412-4.155-6a52.719,52.719,0,0,1-2.873-4.565" transform="translate(-287.933 -310.986)" fill="none" stroke="#574845" stroke-miterlimit="10" stroke-width="0.219"/>
      <path id="Контур_64" data-name="Контур 64" d="M331.988,370.5a25.627,25.627,0,0,1-1.539-5.859,29.546,29.546,0,0,0-1.025-4.822" transform="translate(-291.425 -308.379)" fill="none" stroke="#574845" stroke-miterlimit="10" stroke-width="0.219"/>
      <path id="Контур_65" data-name="Контур 65" d="M315.528,310.956a18.358,18.358,0,0,1,2.463,2.975c.692.872,2.513,1.129,3.309,1.334s-1,1.641-1,1.641-2.77,8-3.053,8.772-.718,1.334-.513,1.822.8,2.77.283,3.667-1.206,1.924-1.206,1.924.283-1.616-.461-2.308a51.2,51.2,0,0,1-4.027-3.385,5.548,5.548,0,0,1-1.436-2.521s1.283-.967-1.23-2.737-6.746-4.258-3.642-8.336S315.528,310.956,315.528,310.956Z" transform="translate(-288.66 -303.063)" fill="#ffbbad"/>
      <path id="Контур_66" data-name="Контур 66" d="M315.2,310.358s-3.693,2.308-4.155,3.181.359,2.1,0,2.718-1.539,2-.924,2.513,2,.41,2.77.82.872.309,1.385-.563-.153-1.386,1.18-1.436,1.025-.257,2.616-.975,1.9-.308,1.9-.308a17.178,17.178,0,0,0,.563,2.77,6.976,6.976,0,0,1,.514,3.283c-.257.616-.205,1.129-1.386,1.18s-1.692.872-2.924.719a4.162,4.162,0,0,1-2.719-1.9,8.377,8.377,0,0,0-2.36-2.462,17.332,17.332,0,0,1-1.714-.616c-.338-.205-.338-.769-1.056-1.129s-1.334-.513-1.591.1a1.756,1.756,0,0,0,.821,2.155c.923.513,1.795.41,1.949,1.129a8.886,8.886,0,0,1-.514,2.737,2.889,2.889,0,0,0-2.368-1.1c-1.838-.154-3.069.718-4.351-.411s-2.052-2.974-1.386-3.641-.234-1.641-.245-2.36-.986-3.745.4-4.565,1.641.153,2-1.436-.411-2.052,1.641-2.924,2.257-.308,3.745-.974.513-1.744,2.513-1.59S314.786,307.486,315.2,310.358Z" transform="translate(-288.329 -302.465)" fill="#6e6547"/>
      <path id="Контур_67" data-name="Контур 67" d="M318.128,315.921c.147.414.088.812-.132.891s-.518-.193-.665-.606-.089-.812.131-.891S317.98,315.507,318.128,315.921Z" transform="translate(-290.105 -303.553)" fill="#6e6547"/>
      <path id="Контур_68" data-name="Контур 68" d="M315.673,315.034c.1-.154.128-1.1,1.719-.924" transform="translate(-289.934 -303.422)" fill="none" stroke="#6e6547" stroke-miterlimit="10" stroke-width="0.348"/>
      <path id="Контур_69" data-name="Контур 69" d="M317.4,320.51a5.168,5.168,0,0,0,4.1-.385" transform="translate(-290.121 -304.076)" fill="none" stroke="#fff" stroke-miterlimit="10" stroke-width="0.233"/>
    </g>
    <g id="Сгруппировать_20" data-name="Сгруппировать 20" transform="translate(326.643 312.037)">
      <path id="Контур_70" data-name="Контур 70" d="M362.97,385.77v8.464s-3.591.462-4.1,0-1.539-7.335-1.539-7.335Z" transform="translate(-336.477 -328.828)" fill="#ffbbad"/>
      <path id="Контур_71" data-name="Контур 71" d="M350.013,386.033l-1.482,8.333s-3.616-.175-4.041-.719-.23-7.491-.23-7.491Z" transform="translate(-335.056 -328.856)" fill="#ffbbad"/>
      <path id="Контур_72" data-name="Контур 72" d="M360.665,392.907c1.812,0,3.351,1.026,3.317,1.231s.069,7.386.889,8.276,2.839,1.641,2.7,2.257-9.062.615-9.233,0-.479-8.071-.615-8.994S355.911,392.907,360.665,392.907Z" transform="translate(-336.478 -329.601)" fill="#30859e"/>
      <path id="Контур_73" data-name="Контур 73" d="M346.394,392.583c1.784.317,3.12,1.6,3.05,1.793s-1.226,7.285-.573,8.3,2.506,2.113,2.264,2.694-9.03-.981-9.09-1.616.942-8.03.968-8.963S341.714,391.751,346.394,392.583Z" transform="translate(-334.821 -329.546)" fill="#30859e"/>
      <path id="Контур_74" data-name="Контур 74" d="M360.717,369.628s2.192,13.612,2.456,14.675-20.917,5.711-21.116.8,1.475-15.472,1.475-15.472Z" transform="translate(-334.821 -327.078)" fill="#d44d6c"/>
      <path id="Контур_75" data-name="Контур 75" d="M352.574,340.263s6.455-4.528,7.037-5.239.786-1.6,1.4-1.327,4.275,2.291,4.309,3.009-1.163,2.36-1.641,3.352-4.035,6.668-4.343,7.763-.615,8.72-.205,10.43,2.085,6.942,2.394,7.728-2.223,1.425-3.625,1.687-13,.366-16.142-.524-1.094-4.172-1.094-4.172-3.044-1.163-2.8-1.744a76.7,76.7,0,0,0,2.77-8.345c.308-1.847,2.074-5.711,3.584-7.113s2.674-1.436,2.674-2.428.136-2.873,1.812-3.044A28.776,28.776,0,0,1,352.574,340.263Z" transform="translate(-334.366 -323.178)" fill="#ff8e27"/>
      <path id="Контур_76" data-name="Контур 76" d="M356.09,342.39c.564.18,1.129.564,1.18,1s-.461,1.36-.461,1.846v1" transform="translate(-336.343 -324.126)" fill="none" stroke="#fff" stroke-miterlimit="10" stroke-width="0.233"/>
      <path id="Контур_77" data-name="Контур 77" d="M361.949,348.837c.034-1.06.308-3.283.376-4.07s.171-1.744.171-1.744" transform="translate(-336.978 -324.194)" fill="none" stroke="#fff" stroke-miterlimit="10" stroke-width="0.233"/>
      <path id="Контур_78" data-name="Контур 78" d="M339.4,364.987s3.253.97,3.458,1.551-2.154,6.5-2.6,7.352-.684,3.625-1.094,3.214-.205-1.914-.65-1.914-1.5,1.06-2.052.684a1.614,1.614,0,0,1-.24-2.155c.514-.82,1.71-1.334,2.189-2.325S339.4,364.987,339.4,364.987Z" transform="translate(-334.158 -326.575)" fill="#ffbbad"/>
      <path id="Контур_79" data-name="Контур 79" d="M343.194,365.176c.638.243,1.732.973,2.006.425s1.063-3.342,1.337-3.919,2.005-4.192,1.975-4.952.941-3.342.942-3.829c0-2.086-1.823-5.166-3.647-5.2" transform="translate(-334.945 -324.702)" fill="none" stroke="#fff" stroke-miterlimit="10" stroke-width="0.233"/>
      <path id="Контур_80" data-name="Контур 80" d="M364.225,332.92A59.627,59.627,0,0,0,368,326.44c.411-1.163.342-2.975.786-3.523s1.129-1.265,1.2-.923a5.492,5.492,0,0,0,.684,1.333c.274.445.684,3.078.205,3.694s-.82.427-1.094,1.12-1.949,6.763-2.325,7.078S363.376,334.174,364.225,332.92Z" transform="translate(-337.211 -321.905)" fill="#ffbbad"/>
      <path id="Контур_81" data-name="Контур 81" d="M349.427,329.369l1.445-.47a6.807,6.807,0,0,1,1.855,1.137c.41.514.65,1.077,1.436,1.231s.889.462.786.615a1.1,1.1,0,0,0,.136.873,7.716,7.716,0,0,1,1.317,2.838c0,1.248-1.591,2.257-1.863,2.89s-.154,3.4-.309,3.779-4.138-.958-4.531-1.556a3.089,3.089,0,0,1-.341-1.573,18.019,18.019,0,0,1-2.428-2.668c-.531-.924-1.026-4.565-.223-5.574A6.2,6.2,0,0,1,349.427,329.369Z" transform="translate(-335.281 -322.663)" fill="#ffbbad"/>
      <path id="Контур_82" data-name="Контур 82" d="M349.733,338.191a4.641,4.641,0,0,0,4.634.786" transform="translate(-335.654 -323.671)" fill="none" stroke="#967570" stroke-miterlimit="10" stroke-width="0.275"/>
      <path id="Контур_83" data-name="Контур 83" d="M352.75,331.581c.163.255.206.518.1.588s-.33-.079-.492-.334-.206-.518-.1-.589S352.587,331.326,352.75,331.581Z" transform="translate(-335.921 -322.916)" fill="#6e6547"/>
      <path id="Контур_84" data-name="Контур 84" d="M350.979,331.319a1.837,1.837,0,0,1,1.351-.838" transform="translate(-335.789 -322.835)" fill="none" stroke="#6e6547" stroke-miterlimit="10" stroke-width="0.348"/>
      <path id="Контур_85" data-name="Контур 85" d="M352.494,335.045a4.711,4.711,0,0,0,3.335-.786" transform="translate(-335.954 -323.244)" fill="none" stroke="#967570" stroke-miterlimit="10" stroke-width="0.275"/>
      <path id="Контур_86" data-name="Контур 86" d="M349.534,328.791s-2.718,2.257-2.616,2.924,1.256,2.719,1.077,3.155-.6.077-1.08-.1-.972.308-1,.794.846,1.386,1.565,1.539.539,1.924.539,1.924a3.928,3.928,0,0,1-2.1-.564,4.417,4.417,0,0,1-1.615-1.231s-.231,1.718-.821,2.155a2.936,2.936,0,0,1-2.437.692c-.949-.256-1.051-.718-2.026-.539s-2.924.488-3.771-.667-1.616-2.257-1.18-3.206,1.1-1.117,1.308-1.923-.462-1.975-.205-2.744,1.129-2.949,3.309-3.078,1.564.59,2.564.513,1.8-.82,2.616-.308a2.8,2.8,0,0,1,1.078,1.1S347.354,327.765,349.534,328.791Z" transform="translate(-333.943 -322.555)" fill="#6e6547"/>
      <path id="Контур_87" data-name="Контур 87" d="M345.468,329.791a5.573,5.573,0,0,0-.872,6.283" transform="translate(-335.031 -322.76)" fill="none" stroke="#fff" stroke-miterlimit="10" stroke-width="0.233"/>
    </g>
    <g id="Сгруппировать_22" data-name="Сгруппировать 22" transform="translate(349.316 260.715)">
      <path id="Контур_88" data-name="Контур 88" d="M370.843,298.311v25.214s-.206,4.213.41,6a6.334,6.334,0,0,1,0,4.348,10.4,10.4,0,0,0-.443,3.744c.032,1.8,1.015,2.719.831,3.847" transform="translate(-360.611 -268.026)" fill="none" stroke="#3e5359" stroke-miterlimit="10" stroke-width="0.275"/>
      <line id="Линия_1" data-name="Линия 1" x1="5.186" y2="28.726" transform="translate(10.232 24.805)" fill="none" stroke="#3e5359" stroke-miterlimit="10" stroke-width="0.275"/>
      <path id="Контур_89" data-name="Контур 89" d="M366.883,270.841c7.2-.7,8.533,4.319,7.68,11.085s-5.177,11.38-4.5,12.581a4.508,4.508,0,0,0,1.334,1.6l-3.055-.025a1.45,1.45,0,0,0,.547-1.988c-.653-1.333-7.914-4.428-9.2-11.213C358.828,278.364,359.281,271.577,366.883,270.841Z" transform="translate(-359.372 -265.041)" fill="#d44d6c"/>
      <g id="Сгруппировать_21" data-name="Сгруппировать 21" transform="translate(9.545)">
        <path id="Контур_90" data-name="Контур 90" d="M377.86,290.367l-3.635-1.153.385-.079a1.343,1.343,0,0,0,1.027-1.623,7.208,7.208,0,0,0-1.238-1.966c-1.8-2.424-4.815-6.482-4.254-11.487.249-2.217,1.1-6.255,4.031-8.383a7.959,7.959,0,0,1,6.518-1.1c2.689.551,4.49,1.69,5.353,3.379,1.121,2.2.727,5.341-1.206,9.62a27.561,27.561,0,0,1-6.06,8.087c-1.189,1.189-2.048,2.049-1.941,2.545a4.477,4.477,0,0,0,.778,1.88Z" transform="translate(-370.077 -264.344)" fill="#a8d2ff"/>
      </g>
    </g>
    <g id="Сгруппировать_23" data-name="Сгруппировать 23" transform="translate(363.774 230.869)">
      <path id="Контур_91" data-name="Контур 91" d="M392.62,382.676s-3.488,12.654-3.283,14.431.667,3.283-.009,4.378-3.069.341-4.026.889-3.967.958-5.129.376,3.967-2.2,5.4-6.761,1.3-14,1.3-14Z" transform="translate(-376.067 -247.25)" fill="#ffbbad"/>
      <path id="Контур_92" data-name="Контур 92" d="M384.512,400.114c-2,2.938-5.3,4.123-4.339,4.6,1.163.581,4.172.171,5.129-.376s3.352.205,4.026-.889c.538-.872.355-2.007.154-3.33a8.135,8.135,0,0,1-2.813.748C385.438,400.867,385.3,400.463,384.512,400.114Z" transform="translate(-376.067 -249.214)" fill="#d44d6c"/>
      <path id="Контур_93" data-name="Контур 93" d="M416.9,382.676s3.488,12.654,3.283,14.431-.667,3.283.009,4.378,3.069.341,4.026.889,3.967.958,5.129.376-3.967-2.2-5.4-6.761-1.3-14-1.3-14Z" transform="translate(-380.067 -247.25)" fill="#ffbbad"/>
      <path id="Контур_94" data-name="Контур 94" d="M425.369,400.114c2,2.938,5.3,4.123,4.339,4.6-1.163.581-4.172.171-5.129-.376s-3.352.205-4.027-.889c-.538-.872-.355-2.007-.154-3.33a8.135,8.135,0,0,0,2.813.748C424.443,400.867,424.578,400.463,425.369,400.114Z" transform="translate(-380.424 -249.214)" fill="#d44d6c"/>
      <path id="Контур_95" data-name="Контур 95" d="M437.436,293.313c.149-.4,3.585-5.229,4.133-6.624s.5-3.685,1.992-3.436,1.793,2.34,1.444,3.685-1.345,1.594-2.092,3.039-2.779,5.877-2.779,5.877Z" transform="translate(-382.293 -236.545)" fill="#ffbbad"/>
      <path id="Контур_96" data-name="Контур 96" d="M383.6,325.658s-2.258,2.685-2.531,3.138a17.135,17.135,0,0,1-1.88,2.4,23.564,23.564,0,0,1-3.318,2.565c-.41.034-.308-1.608,0-2.052a13.089,13.089,0,0,0,.821-1.812s-.952.444-1.091.273.646-1.076,1.125-1.376,1.094-.539,1.676-.915a39.951,39.951,0,0,0,3.214-4.035Z" transform="translate(-375.589 -240.947)" fill="#ffbbad"/>
      <path id="Контур_97" data-name="Контур 97" d="M412.605,272.96a9.082,9.082,0,0,0,1.18-3.488,8.139,8.139,0,0,0-3.078-6.617c-2.787-1.975-6.8-.231-7.772.411s-3.153,1.14-4.744,1.9c-1.05.5-3.258,3.847-.231,5.13s5.134-.333,7.184-.539,2.819,1.847,4.255,3.206A2.043,2.043,0,0,0,412.605,272.96Z" transform="translate(-377.847 -234.237)" fill="#6e6547"/>
      <path id="Контур_98" data-name="Контур 98" d="M420.028,260.977a5.531,5.531,0,1,1-5.531-5.531A5.531,5.531,0,0,1,420.028,260.977Z" transform="translate(-379.206 -233.533)" fill="#6e6547"/>
      <path id="Контур_99" data-name="Контур 99" d="M411.648,273.758c.354-.059.923-1.231,1.487-1.539s1.026.308.975.769-.769,2.565-1.641,2.616c-.205,1.436-.564,5.335-.051,6.669a4.487,4.487,0,0,0,3.693,2.872,8.12,8.12,0,0,1-7.13,3.95,10.961,10.961,0,0,1-6.72-2.667c2-1.436,4.412-2.924,4.412-3.95a7.062,7.062,0,0,0-.257-1.863s-2.359-1.205-2.974-2.852-.873-6.648-1.181-7.276c2.1-1.039,4.668-2.373,4.668-2.373s3.488,1.436,4.1,2.155S411.032,273.86,411.648,273.758Z" transform="translate(-378.48 -234.906)" fill="#ffbbad"/>
      <path id="Контур_100" data-name="Контур 100" d="M405.761,274.31a1.693,1.693,0,0,1-.188,1.317c-.171.17.229.479.533.5" transform="translate(-378.834 -235.578)" fill="none" stroke="#967570" stroke-miterlimit="10" stroke-width="0.275"/>
      <path id="Контур_101" data-name="Контур 101" d="M405.854,277.714a8.006,8.006,0,0,0,3.259-1.18,2.5,2.5,0,0,1-1.521,2.258C407.061,278.877,405.854,277.714,405.854,277.714Z" transform="translate(-378.869 -235.819)" fill="#fff"/>
      <path id="Контур_102" data-name="Контур 102" d="M413.156,276.534s-.632,4.035-3.762,4.754" transform="translate(-379.253 -235.819)" fill="none" stroke="#967570" stroke-miterlimit="10" stroke-width="0.275"/>
      <path id="Контур_103" data-name="Контур 103" d="M406.671,272.053a2.106,2.106,0,0,1,1.71-.153" transform="translate(-378.958 -235.305)" fill="none" stroke="#6e6547" stroke-miterlimit="10" stroke-width="0.348"/>
      <path id="Контур_104" data-name="Контур 104" d="M403.171,273.13a2.111,2.111,0,0,1,1.71-.153" transform="translate(-378.578 -235.422)" fill="none" stroke="#6e6547" stroke-miterlimit="10" stroke-width="0.348"/>
      <path id="Контур_105" data-name="Контур 105" d="M407.954,273.274c.052.326-.035.611-.193.636s-.329-.218-.381-.546.035-.611.194-.636S407.9,272.947,407.954,273.274Z" transform="translate(-379.033 -235.406)" fill="#6e6547"/>
      <path id="Контур_106" data-name="Контур 106" d="M404.872,274.286c.052.326-.035.611-.194.637s-.329-.219-.381-.546.035-.612.193-.637S404.821,273.96,404.872,274.286Z" transform="translate(-378.699 -235.516)" fill="#6e6547"/>
      <path id="Контур_107" data-name="Контур 107" d="M414.289,286.411a12.317,12.317,0,0,1,5.233,2.53c1.847,1.471,7.147,8.139,7.831,8.037s3.59-4.549,4.1-4.309,3.043,2.257,2.941,2.77-2.6,8.822-5.506,9.028-10.465-7.217-11.046-7.284-.547,2.359-2.394,5.266c-1.074,1.692-1.88,7.169-1.3,8.229a48.794,48.794,0,0,1,4.1,11.5c1.2,5.163,7.353,42.1,8.276,45.072s1.95,6.361,1.95,6.361a8.977,8.977,0,0,1-4.617,1.846c-2.668.205-3.8,1.641-6.874,1.129s-2.667-1.026-5.951-.719-5.54,1.554-8.412.828-4.617-1.751-7.284-1.7-3.385,2.206-7.694.667-7.284-2.565-8.413-2.359,8.721-26.572,9.951-34.78,10.772-25.545,11.286-27.494-.308-6.772-.719-8a11.055,11.055,0,0,0-1.539-2.668s-5.386,10.875-7.028,13.286-7.13,8.515-7.13,8.515l-2.821-1.9s4.719-8.464,5.9-12.671,6.535-15.022,7.438-16.518c1.488-2.462,3.293-4.162,5.643-3.385C406.115,289.642,413.489,286.411,414.289,286.411Z" transform="translate(-375.974 -236.889)" fill="#7a2c3e"/>
      <path id="Контур_108" data-name="Контур 108" d="M443.7,260.866v22.366a38.064,38.064,0,0,0,.909,3.887c.411,1.173.274,1.106,0,2.61a5.434,5.434,0,0,0,.259,3.009,6.594,6.594,0,0,1,0,2.6,6.558,6.558,0,0,0,.141,1.71" transform="translate(-382.972 -234.12)" fill="none" stroke="#3e5359" stroke-miterlimit="10" stroke-width="0.275"/>
      <path id="Контур_109" data-name="Контур 109" d="M403.833,313.413s3.624,2.463,12.174,0" transform="translate(-378.65 -239.816)" fill="none" stroke="#d44d6c" stroke-miterlimit="10" stroke-width="0.348"/>
      <path id="Контур_110" data-name="Контур 110" d="M448.606,230.954c-2.218.391-4.561,2.258-5.768,3.341a1.237,1.237,0,0,1-1.65,0c-1.206-1.083-3.549-2.949-5.768-3.341-4.079-.72-8.157,3.215-7.127,8.973.74,4.134,4.879,10.252,12.9,16.061a9.8,9.8,0,0,1-1.362,2.734c2.208.879,3.695.369,4.127,0,.246-.21-.523-1.551-1.229-2.663,8.09-5.831,12.258-11.98,13-16.132C456.763,234.169,452.684,230.234,448.606,230.954Z" transform="translate(-381.284 -230.869)" fill="#d44d6c"/>
      <path id="Контур_111" data-name="Контур 111" d="M415.043,314.027s2.922,7.818,3.348,14.055,2.554,18.3,3.121,23.125,2.967,23.417,2.967,23.417" transform="translate(-379.865 -239.883)" fill="none" stroke="#d44d6c" stroke-miterlimit="10" stroke-width="0.348"/>
      <path id="Контур_112" data-name="Контур 112" d="M409.932,315.149s-.788,17.805-1.356,26.212-.142,18.292,0,22.361.535,11.024.535,11.024" transform="translate(-379.133 -240.005)" fill="none" stroke="#d44d6c" stroke-miterlimit="10" stroke-width="0.348"/>
      <path id="Контур_113" data-name="Контур 113" d="M403.787,314.088s-3.563,11.72-4.273,16.973-5.486,16.748-5.795,21.005-3.572,22-3.572,22" transform="translate(-377.167 -239.89)" fill="none" stroke="#d44d6c" stroke-miterlimit="10" stroke-width="0.348"/>
    </g>
  </g>
</svg>
