<svg xmlns="http://www.w3.org/2000/svg" width="172.706" height="186.205" viewBox="0 0 172.706 186.205">
  <g id="Сгруппировать_15" data-name="Сгруппировать 15" transform="translate(-56.736 -36.368)">
    <path id="Контур_7" data-name="Контур 7" d="M84.931,192.975s-1.976-9.754-4.1-10.674-10.748,4.717-18.918,0-5.523-10.7,0-11.967,20.712,11.851,19.676,9.205-1.611-6.252-5.638-10.2-14.5-9.243-17.72-16.377S59.5,141.452,65.6,141.567s10.011,4.833,11.737,12.2,2.531,17.835,4.027,21.057.921,6.329,2.992,5.984-4.143-10.6-.921-18.534,9.206-11.383,13.808-6.205,4.641,13.27-.8,19.353c-3.068,3.427-9.913,7.159-10.164,10.333s2.224,8.285,2.224,8.285Z" fill="#91c9ba"/>
    <path id="Контур_8" data-name="Контур 8" d="M150.341,177.526h48.653c13.43,0,24.476,5.54,24.476,11.063s-16.569,10.874-28.306,10.874-17.03,2.169-17.49,7.922-.5,15.188-22.919,15.188H121.292c-8.285,0-10.821-10.355-23.246-10.355s-36.128-.862-36.128-12.168,21.5-8.314,40.473-8.314S129.912,177.526,150.341,177.526Z" fill="#e0efff"/>
    <g id="Сгруппировать_13" data-name="Сгруппировать 13">
      <path id="Контур_9" data-name="Контур 9" d="M170.655,51.816s47.984-6.2,56.114,1.3c1,.921.46,6.674,0,10.586s-6.827,9.436-8.208,13.5.077,7.9-1.381,11.353-6.29,5.093-8.131,8.3-2.225,9.42-4.3,11.415-5.83.307-8.131,3.145" fill="none" stroke="#6e6547" stroke-miterlimit="10" stroke-width="0.233"/>
      <path id="Контур_10" data-name="Контур 10" d="M144.075,121.776s-7.652,14.268-7.709,15.3-.045,5.12-.368,5.926-3.89,3.164-4.753,1.553-.46-6.674.288-8.342,5.465-16.8,5.465-16.8Z" fill="#ffbbad"/>
      <path id="Контур_11" data-name="Контур 11" d="M165.822,180.8s-3.279,2.416-3.049,4.027,2.244,2.934,3.912,4.6,5.236,4.027,5.984,3.452-2.359-9.724-2.359-9.724Z" fill="#30859e"/>
      <path id="Контур_12" data-name="Контур 12" d="M129.5,201.08s-2.534,3.19-1.891,4.685,2.933,2.245,4.979,3.42,6.107,2.518,6.678,1.768-4.818-8.769-4.818-8.769Z" fill="#30859e"/>
      <path id="Контур_13" data-name="Контур 13" d="M178.365,121.316s6.776,18.065,8.853,22.207,4.494,12.2,1.157,17.72c-1.625,2.69-11.356,14.959-13.33,17.26s-2.894,6.789-5.08,6.559-5.869-1.956-4.718-5.408S170.2,169.3,172.5,165.386s5.063-8.975,5.063-8.975-7.824-11.967-8.63-12.658-12.312,23.129-14.958,28.882-16.309,27.5-16.554,28.536-.131,2.762-2.2,2.647-7.479-.115-7.249-2.3,10.7-31.177,13.923-38.947S153.4,123.5,155.236,122.812,177.709,119.577,178.365,121.316Z" fill="#ff8e27"/>
      <path id="Контур_14" data-name="Контур 14" d="M174.222,133.858a94.5,94.5,0,0,0-5.063,8.4" fill="none" stroke="#6e6547" stroke-miterlimit="10" stroke-width="0.233"/>
      <path id="Контур_15" data-name="Контур 15" d="M173.386,81.043c2.908-.149,14.184-1.381,18.173-3.529s14.421-9.205,16.8-10.739,2.992-1.305,3.836,0,2.838,4.343,1.381,7.273S203.526,84.878,198,88.484s-12.35,6.52-13.117,8.821-3.989,12.5-4.373,17.874-.076,8.054-1.994,9.742a16.334,16.334,0,0,1-11.737,4.142c-8.591-.383-12.35-4.6-14.345-9.051-.689-1.537,1.765-2.685,2.915-4.987s-.306-3.989.767-5.523,3.146-8.591,3.146-8.591-8.176,7.217-10.663,13.5c-1.458,3.682-2.838,7.594-4.526,8.208s-8.515.307-8.055-3.836,4.066-13.961,9.666-20.251,15.8-14.806,18.794-16.11S169.991,81.216,173.386,81.043Z" fill="#30859e"/>
      <path id="Контур_16" data-name="Контур 16" d="M159.264,100.911s2.071-1.534,3.068-2.455,2.455-2.378,3.3-3.145,1.457-1.841,1.61-4.219a8.29,8.29,0,0,0-1.687-4.756" fill="none" stroke="#26697d" stroke-miterlimit="10" stroke-width="0.233"/>
      <path id="Контур_17" data-name="Контур 17" d="M185.1,96.86s1.115-3.007,1.868-4.464a50.327,50.327,0,0,0,2.363-7.594" fill="none" stroke="#26697d" stroke-miterlimit="10" stroke-width="0.233"/>
      <path id="Контур_18" data-name="Контур 18" d="M180.743,101.908s-4.6,11.046-17.107,12.12" fill="none" stroke="#26697d" stroke-miterlimit="10" stroke-width="0.233"/>
      <path id="Контур_19" data-name="Контур 19" d="M211.216,67s10.816-8.86,11.736-11.219,1.842-5.466,2.877-5.178l1.036.287s1.956-.4,2.474.346-1.036,6.328-1.9,6.731a10.446,10.446,0,0,0-3.222,3.107c-1.15,1.553-10.7,11.933-11.161,12.094S209.542,68.4,211.216,67Z" fill="#ffbbad"/>
      <path id="Контур_20" data-name="Контур 20" d="M144.995,36.474s24.394,11.085,25.66,15.342-6.925,21.225-15.9,27.439" fill="none" stroke="#6e6547" stroke-miterlimit="10" stroke-width="0.233"/>
      <path id="Контур_21" data-name="Контур 21" d="M144.995,36.474s20.559,14.652,21.4,15.265c0,0-4.219,18.871-12.044,28.676,0,0-5.83-14.115-16.646-20.544A55.407,55.407,0,0,0,144.995,36.474Z" fill="#ffd3ab"/>
      <path id="Контур_22" data-name="Контур 22" d="M144.995,36.474s15.189,17.567,9.359,43.941" fill="none" stroke="#6e6547" stroke-miterlimit="10" stroke-width="0.233"/>
      <path id="Контур_23" data-name="Контур 23" d="M166.4,51.739a69.185,69.185,0,0,1-28.69,8.132" fill="none" stroke="#6e6547" stroke-miterlimit="10" stroke-width="0.233"/>
      <path id="Контур_24" data-name="Контур 24" d="M154.755,79.255s-.748,5.02-6.962,8.867-12.657.818-18.755,2.793-5.926,6.4-10.069,7.613a15.256,15.256,0,0,1-8.4-.326s1.9-4.1-2.647-7.038c5.236-.748,5.7,5.293,11.162,2.129s6.213-6.559,10.643-7.479,12.254,2.507,16.972.345A19.054,19.054,0,0,0,154.755,79.255Z" fill="#6e6547"/>
      <path id="Контур_25" data-name="Контур 25" d="M170.54,70.265c-1.17.488-1.638,4.1.192,4.906,0,0-1.082,6.159-1.587,6.907s-1.164,2.359,0,3.165,6.2,3.656,7.033.517c.825-3.092.768-5.638,1.362-6.271s3.644.115,4.564-1.265.921-7.25,1.151-8.745a55.216,55.216,0,0,0,0-6.271l-9.723,1.438Z" fill="#ffbbad"/>
      <path id="Контур_26" data-name="Контур 26" d="M177.937,67.467a3.093,3.093,0,0,1,1.7,0" fill="none" stroke="#3e5359" stroke-miterlimit="10" stroke-width="0.46"/>
      <path id="Контур_27" data-name="Контур 27" d="M181.241,67.343a1.389,1.389,0,0,1,1.343.314" fill="none" stroke="#3e5359" stroke-miterlimit="10" stroke-width="0.46"/>
      <path id="Контур_28" data-name="Контур 28" d="M180.436,68.961a11.305,11.305,0,0,1,.153,2.378c-.153.211-.953-.4-.953-.4" fill="none" stroke="#967570" stroke-miterlimit="10" stroke-width="0.275"/>
      <path id="Контур_29" data-name="Контур 29" d="M177.789,72.3l3.836.172s-.288,1.6-1.726,1.577S177.789,72.3,177.789,72.3Z" fill="#fff"/>
      <path id="Контур_30" data-name="Контур 30" d="M173.474,73.173s-.671,3.957,1.7,5.137" fill="none" stroke="#967570" stroke-miterlimit="10" stroke-width="0.275"/>
      <path id="Контур_31" data-name="Контур 31" d="M179.247,68.827c0,.4-.2.728-.441.728s-.441-.326-.441-.728.2-.729.441-.729S179.247,68.424,179.247,68.827Z" fill="#3e5359"/>
      <path id="Контур_32" data-name="Контур 32" d="M182.066,68.827c0,.4-.2.728-.441.728s-.441-.326-.441-.728.2-.729.441-.729S182.066,68.424,182.066,68.827Z" fill="#3e5359"/>
      <path id="Контур_33" data-name="Контур 33" d="M174.981,67.118c.49-1.416,1.192-1.713,3.277-1.862s5.735.074,7.373-2.607,1.788-4.1.373-4.1-3.2,1.117-5.028,1.192-7.41-1.192-10.612,1.787c-2.632,2.448-1.165,5.381.176,8.733,0,0,1.458-.767,2.281.279,1.141,1.448-.3,3.351.447,3.5S174.311,69.054,174.981,67.118Z" fill="#3e5359"/>
    </g>
    <g id="Сгруппировать_14" data-name="Сгруппировать 14">
      <path id="Контур_34" data-name="Контур 34" d="M119.144,187.172c2.029.124,3.145.767,2.915,1.534s-1.611,5.676-1.266,6.482,3.107,2.34,3.184,3.49-3.337.729-4.833.614-4.334-1.5-4.066-2.11a15.031,15.031,0,0,0,.691-4.411C116,188.476,114.158,186.865,119.144,187.172Z" fill="#d44d6c"/>
      <path id="Контур_35" data-name="Контур 35" d="M89.9,190.221c1.616,1.233,2.431,3.067,1.813,3.577s-4.738,3.141-4.9,4,1.281,3.672.7,4.671-3.179-1.25-4.358-2.178-2.771-3.653-2.206-4.013,1.258-1.766,2.662-3.639C86.2,189.2,85.5,186.86,89.9,190.221Z" fill="#d44d6c"/>
      <path id="Контур_36" data-name="Контур 36" d="M114.388,161.819a65.144,65.144,0,0,0,5.523,6.137c3.989,3.375,3.836,6.52,3.606,9.665s-1.458,9.512-2.148,10.433-4.526,1.611-4.756,0-.154-7.211-1.611-8.745-7.978-3.89-7.978-3.89-4.756,7.8-7.211,10.027-8.515,7.9-9.282,7.978-4.679-2.072-4.219-3.836,4.833-7.9,6.06-11.43,4.3-14.038,5.6-15.572S114.388,161.819,114.388,161.819Z" fill="#7a2c3e"/>
      <path id="Контур_37" data-name="Контур 37" d="M109.862,169.336a39.876,39.876,0,0,1-2.838,6.083" fill="none" stroke="#541e2b" stroke-miterlimit="10" stroke-width="0.46"/>
      <path id="Контур_38" data-name="Контур 38" d="M118.607,137.617c1.8.124,3.721,4.372,4.833,5.676s3.337,3.222,3.95,3.26,3.8-5.868,4.181-6.558.652-2.532,1.841-3.069,1.956.767,1.726,1.918-.805,3.03-1.381,3.222-3.106,8.63-5.638,9.4-9.4-4.948-10.049-6.06S117.5,137.54,118.607,137.617Z" fill="#ffbbad"/>
      <path id="Контур_39" data-name="Контур 39" d="M105.585,135.756a8.179,8.179,0,0,1,4.143-.978,55.943,55.943,0,0,1,5.71.978,16.834,16.834,0,0,1,4.019,2.2c.464.374-1.047,7.869-1.047,7.869s-.282,6.842-1.2,9.316-.69,6.255-.92,7.126-7.019,4.611-11.334,4.611S95,163.66,95.977,161.761s4.373-4.806,5.121-10.228S101.213,139.036,105.585,135.756Z" fill="#d44d6c"/>
      <path id="Контур_40" data-name="Контур 40" d="M117.178,124.394l.684-.566a27.507,27.507,0,0,1-.684-3.663c.029-.748.633-2.215-1.7-2.445s-3.078,1.208-4.056,1.409-4.315-.5-6.012,1.589-1.18,2.439-2.244,2.352-2.244-1.611-5.322-.661-3.739,3.8-3.854,6.789-1.352,7.91-3.05,8.256c.115,1.093,3.977,1.889,6.53.287s5.034-3.969,5.15-7.767-.232-3.768-.232-3.768l1.67.863s.92,4.085,3.02,5.609,3.625.691,3.625.691l2.129-7.537Z" fill="#3e5359"/>
      <path id="Контур_41" data-name="Контур 41" d="M99.142,104.459c.8-.062,1.266,1.668,1.438,2.473s1.036.231,1.208.748.518,2.819,0,3.395S103.342,125.4,103.4,126.9s3.337,9.206,3.337,10.759-3.624,7.94-5.293,3.97-2.819-15.189-2.934-18.3.288-11.966.288-11.966S96.9,104.631,99.142,104.459Z" fill="#ffbbad"/>
      <path id="Контур_42" data-name="Контур 42" d="M109.67,129.081a27.087,27.087,0,0,0,.269-4.62,3.81,3.81,0,0,1,1.15-2.838,9.347,9.347,0,0,0,5.333-.9,5.8,5.8,0,0,1,1.418,2.963c.23,1.739,1.573,6.111.537,7.262s-2.3.614-2.915,1.687a11.671,11.671,0,0,0-.882,3.337s-4.833.576-5.83-.268.69-4.833.5-4.986-3.413-1.765-2.512-3.414S109.363,127.642,109.67,129.081Z" fill="#ffbbad"/>
      <path id="Контур_43" data-name="Контур 43" d="M113.64,127.644a6.086,6.086,0,0,0,3.6-.949s-.058,1.812-1.122,2.157A2.2,2.2,0,0,1,113.64,127.644Z" fill="#fff"/>
      <path id="Контур_44" data-name="Контур 44" d="M114.733,124.748s.336.863.705.748.561,0,.5.173a1.579,1.579,0,0,1-.364.441" fill="none" stroke="#967570" stroke-miterlimit="10" stroke-width="0.275"/>
      <path id="Контур_45" data-name="Контур 45" d="M113.211,124.812c.127.408.064.79-.141.854s-.474-.215-.6-.623-.064-.79.141-.854S113.084,124.4,113.211,124.812Z" fill="#3e5359"/>
      <path id="Контур_46" data-name="Контур 46" d="M116.151,123.885c.127.408.064.79-.141.854s-.475-.215-.6-.623-.064-.79.141-.854S116.023,123.477,116.151,123.885Z" fill="#3e5359"/>
      <path id="Контур_47" data-name="Контур 47" d="M110.361,129.639a3.627,3.627,0,0,0,3.279,2.109" fill="none" stroke="#967570" stroke-miterlimit="10" stroke-width="0.275"/>
    </g>
    <path id="Контур_48" data-name="Контур 48" d="M84.534,78.334h36.821c8.468,0,6.931-2.784,1.889-4.6-2.687-.97-7.383-7.706-11.1-8.111s-3.652,4.429-7.829,4.429-4.356-7.211-12.477-6.828-7.118,6.9-12.181,8.822-20.942,6.29-12.2,6.29Z" fill="#e0efff"/>
    <path id="Контур_49" data-name="Контур 49" d="M191.137,130.291h22.956c4.775,0,1.783-.46,0-2.992s-2.705-6.717-4.891-6.581-2.774,2.9-5.3,2.324-3.216-4.833-6.668-4.6-3.106,6.9-6.1,7.709S182.162,130.291,191.137,130.291Z" fill="#e0efff"/>
  </g>
</svg>

