<svg xmlns="http://www.w3.org/2000/svg" width="151" height="144.867" viewBox="0 0 151 144.867">
  <g id="Сгруппировать_36" data-name="Сгруппировать 36" transform="translate(-56.11 -54.981)">
    <g id="freepik--background-simple--inject-2" transform="translate(57.323 72.427)">
      <path id="Контур_114" data-name="Контур 114" d="M88.341,120.043c-7.967,4.143-14.162,11.094-19.034,18.637C62.38,149.4,57.7,162.245,59.682,174.854S71.714,199.292,84.447,200.3c16.3,1.293,29.567-14.127,45.828-15.825,6.2-.646,12.4.779,18.613,1.168A58.536,58.536,0,0,0,197.5,164.13c7.531-9.427,12.025-21.865,9.669-33.7-2.445-12.3-12.165-22.449-23.8-27.137s-24.863-4.361-36.919-.907c-11.164,3.2-20.069,9.346-30.073,14.844-4.038,2.223-8.617-.779-13.127-.822A31.692,31.692,0,0,0,88.341,120.043Z" transform="translate(-59.224 -99.784)" fill="#ffc100"/>
      <path id="Контур_115" data-name="Контур 115" d="M88.341,120.043c-7.967,4.143-14.162,11.094-19.034,18.637C62.38,149.4,57.7,162.245,59.682,174.854S71.714,199.292,84.447,200.3c16.3,1.293,29.567-14.127,45.828-15.825,6.2-.646,12.4.779,18.613,1.168A58.536,58.536,0,0,0,197.5,164.13c7.531-9.427,12.025-21.865,9.669-33.7-2.445-12.3-12.165-22.449-23.8-27.137s-24.863-4.361-36.919-.907c-11.164,3.2-20.069,9.346-30.073,14.844-4.038,2.223-8.617-.779-13.127-.822A31.692,31.692,0,0,0,88.341,120.043Z" transform="translate(-59.224 -99.784)" fill="#fff" opacity="0.9" style="isolation: isolate"/>
    </g>
    <g id="freepik--Shadow--inject-2" transform="translate(56.11 191.032)">
      <ellipse id="freepik--path--inject-2" cx="75.5" cy="4.408" rx="75.5" ry="4.408" transform="translate(0)" fill="#f5f5f5"/>
    </g>
    <g id="freepik--Company--inject-2" transform="translate(96.872 54.981)">
      <path id="Контур_116" data-name="Контур 116" d="M160.83,84.62l1.452,1.877h66.532l1.464-1.877Z" transform="translate(-160.814 -73.079)" fill="#ffc100"/>
      <g id="Сгруппировать_25" data-name="Сгруппировать 25" transform="translate(0.016 11.541)" opacity="0.4">
        <path id="Контур_117" data-name="Контур 117" d="M160.83,84.62l1.452,1.877h66.532l1.464-1.877Z" transform="translate(-160.83 -84.62)"/>
      </g>
      <rect id="Прямоугольник_14" data-name="Прямоугольник 14" width="66.684" height="118.213" transform="translate(1.332 9.123)" fill="#ffc100"/>
      <g id="Сгруппировать_26" data-name="Сгруппировать 26" transform="translate(1.332 9.123)" opacity="0.4">
        <rect id="Прямоугольник_15" data-name="Прямоугольник 15" width="66.684" height="118.213" fill="#fff"/>
      </g>
      <g id="Сгруппировать_27" data-name="Сгруппировать 27" transform="translate(1.34 10.63)" opacity="0.8">
        <path id="Контур_118" data-name="Контур 118" d="M166.926,83.682a1.211,1.211,0,0,1-1.192,1.39,1.557,1.557,0,0,1-1.487-1.39,1.215,1.215,0,0,1,1.014-1.387,1.236,1.236,0,0,1,.182-.014A1.558,1.558,0,0,1,166.926,83.682Z" transform="translate(-164.232 -82.28)" fill="#f0f0f0"/>
        <path id="Контур_119" data-name="Контур 119" d="M173.238,83.682a1.223,1.223,0,0,1-1.044,1.378,1.152,1.152,0,0,1-.164.012,1.558,1.558,0,0,1-1.472-1.39,1.223,1.223,0,0,1,1.2-1.4A1.557,1.557,0,0,1,173.238,83.682Z" transform="translate(-168.087 -82.28)" fill="#f0f0f0"/>
        <path id="Контур_120" data-name="Контур 120" d="M179.541,83.682a1.231,1.231,0,0,1-1.06,1.38,1.205,1.205,0,0,1-.155.011,1.526,1.526,0,0,1-1.464-1.39,1.234,1.234,0,0,1,1.056-1.391,1.278,1.278,0,0,1,.159-.011A1.527,1.527,0,0,1,179.541,83.682Z" transform="translate(-171.937 -82.28)" fill="#f0f0f0"/>
        <path id="Контур_121" data-name="Контур 121" d="M185.844,83.682a1.247,1.247,0,0,1-1.093,1.382,1.272,1.272,0,0,1-.133.008,1.515,1.515,0,0,1-1.452-1.39,1.25,1.25,0,0,1,1.089-1.392,1.233,1.233,0,0,1,.142-.009A1.511,1.511,0,0,1,185.844,83.682Z" transform="translate(-175.787 -82.28)" fill="#f0f0f0"/>
        <path id="Контур_122" data-name="Контур 122" d="M192.156,83.682a1.258,1.258,0,0,1-1.118,1.383c-.04,0-.08.007-.12.007a1.5,1.5,0,0,1-1.441-1.39,1.257,1.257,0,0,1,1.238-1.4A1.5,1.5,0,0,1,192.156,83.682Z" transform="translate(-179.642 -82.28)" fill="#f0f0f0"/>
        <path id="Контур_123" data-name="Контур 123" d="M198.458,83.682a1.269,1.269,0,0,1-1.143,1.384c-.035,0-.071.005-.107.006a1.483,1.483,0,0,1-1.429-1.39,1.269,1.269,0,0,1,1.13-1.395c.04,0,.08-.007.12-.007A1.48,1.48,0,0,1,198.458,83.682Z" transform="translate(-183.491 -82.28)" fill="#f0f0f0"/>
        <path id="Контур_124" data-name="Контур 124" d="M204.789,83.682a1.281,1.281,0,0,1-1.167,1.385c-.031,0-.063,0-.094,0a1.468,1.468,0,0,1-1.417-1.39,1.277,1.277,0,0,1,1.146-1.4c.037,0,.074-.005.111-.006A1.472,1.472,0,0,1,204.789,83.682Z" transform="translate(-187.357 -82.28)" fill="#f0f0f0"/>
        <path id="Контур_125" data-name="Контур 125" d="M211.066,83.682a1.293,1.293,0,0,1-1.192,1.387l-.086,0a1.452,1.452,0,0,1-1.406-1.39,1.292,1.292,0,0,1,1.179-1.4c.03,0,.06,0,.09,0A1.456,1.456,0,0,1,211.066,83.682Z" transform="translate(-191.188 -82.28)" fill="#f0f0f0"/>
        <path id="Контур_126" data-name="Контур 126" d="M217.373,83.682a1.3,1.3,0,0,1-1.216,1.387l-.065,0a1.441,1.441,0,0,1-1.4-1.39,1.3,1.3,0,0,1,1.2-1.4l.082,0A1.437,1.437,0,0,1,217.373,83.682Z" transform="translate(-195.042 -82.28)" fill="#f0f0f0"/>
        <path id="Контур_127" data-name="Контур 127" d="M223.678,83.682a1.32,1.32,0,0,1-1.248,1.389l-.049,0A1.421,1.421,0,0,1,221,83.682a1.316,1.316,0,0,1,1.227-1.4l.065,0A1.425,1.425,0,0,1,223.678,83.682Z" transform="translate(-198.89 -82.28)" fill="#f0f0f0"/>
        <path id="Контур_128" data-name="Контур 128" d="M229.986,83.682a1.332,1.332,0,0,1-1.272,1.389h-.033a1.413,1.413,0,0,1-1.375-1.39,1.328,1.328,0,0,1,1.252-1.4l.053,0A1.41,1.41,0,0,1,229.986,83.682Z" transform="translate(-202.745 -82.28)" fill="#f0f0f0"/>
        <path id="Контур_129" data-name="Контур 129" d="M236.287,83.682a1.344,1.344,0,0,1-1.3,1.39h-.021a1.4,1.4,0,0,1-1.363-1.39,1.343,1.343,0,0,1,1.283-1.4h.033A1.394,1.394,0,0,1,236.287,83.682Z" transform="translate(-206.593 -82.28)" fill="#f0f0f0"/>
        <path id="Контур_130" data-name="Контур 130" d="M242.6,83.682a1.355,1.355,0,0,1-1.319,1.39h-.009a1.382,1.382,0,0,1-1.351-1.39,1.355,1.355,0,0,1,1.307-1.4h.021A1.386,1.386,0,0,1,242.6,83.682Z" transform="translate(-210.446 -82.28)" fill="#f0f0f0"/>
        <path id="Контур_131" data-name="Контур 131" d="M248.9,83.682a1.34,1.34,0,1,1-1.34-1.4,1.367,1.367,0,0,1,1.34,1.393Z" transform="translate(-214.296 -82.28)" fill="#f0f0f0"/>
        <path id="Контур_132" data-name="Контур 132" d="M255.2,83.682a1.379,1.379,0,0,1-1.347,1.39,1.355,1.355,0,0,1-1.328-1.382v-.009a1.378,1.378,0,0,1,1.347-1.4,1.355,1.355,0,0,1,1.328,1.381Z" transform="translate(-218.146 -82.28)" fill="#f0f0f0"/>
        <path id="Контур_133" data-name="Контур 133" d="M261.508,83.682a1.394,1.394,0,0,1-1.363,1.39,1.343,1.343,0,0,1-1.317-1.369v-.021a1.394,1.394,0,0,1,1.359-1.4,1.347,1.347,0,0,1,1.321,1.373C261.509,83.663,261.508,83.672,261.508,83.682Z" transform="translate(-221.993 -82.28)" fill="#f0f0f0"/>
        <path id="Контур_134" data-name="Контур 134" d="M267.8,83.682a1.41,1.41,0,0,1-1.371,1.39,1.336,1.336,0,0,1-1.309-1.361v-.029a1.41,1.41,0,0,1,1.375-1.4,1.332,1.332,0,0,1,1.306,1.357C267.8,83.652,267.8,83.667,267.8,83.682Z" transform="translate(-225.833 -82.28)" fill="#f0f0f0"/>
        <path id="Контур_135" data-name="Контур 135" d="M274.116,83.682a1.425,1.425,0,0,1-1.386,1.39,1.316,1.316,0,0,1-1.295-1.337c0-.018,0-.035,0-.053a1.421,1.421,0,0,1,1.382-1.4,1.32,1.32,0,0,1,1.3,1.341C274.118,83.641,274.117,83.662,274.116,83.682Z" transform="translate(-229.69 -82.28)" fill="#f0f0f0"/>
        <path id="Контур_136" data-name="Контур 136" d="M280.391,83.682a1.441,1.441,0,0,1-1.41,1.39,1.309,1.309,0,0,1-1.287-1.329c0-.02,0-.041,0-.061a1.437,1.437,0,0,1,1.394-1.4,1.3,1.3,0,0,1,1.3,1.3Q280.394,83.633,280.391,83.682Z" transform="translate(-233.512 -82.28)" fill="#f0f0f0"/>
        <path id="Контур_137" data-name="Контур 137" d="M286.689,83.682a1.448,1.448,0,0,1-1.4,1.39,1.3,1.3,0,0,1-1.3-1.3c0-.031,0-.062,0-.093a1.453,1.453,0,0,1,1.406-1.4,1.293,1.293,0,0,1,1.294,1.292Q286.694,83.627,286.689,83.682Z" transform="translate(-237.357 -82.28)" fill="#f0f0f0"/>
        <path id="Контур_138" data-name="Контур 138" d="M293.022,83.682a1.468,1.468,0,0,1-1.417,1.39,1.281,1.281,0,0,1-1.266-1.3c0-.032,0-.063,0-.094a1.464,1.464,0,0,1,1.417-1.4,1.285,1.285,0,0,1,1.267,1.3C293.026,83.616,293.025,83.649,293.022,83.682Z" transform="translate(-241.233 -82.28)" fill="#f0f0f0"/>
        <path id="Контур_139" data-name="Контур 139" d="M299.32,83.682a1.48,1.48,0,0,1-1.425,1.39,1.273,1.273,0,0,1-1.259-1.287c0-.034,0-.069.005-.1a1.48,1.48,0,0,1,1.429-1.4,1.27,1.27,0,0,1,1.257,1.282C299.327,83.6,299.325,83.642,299.32,83.682Z" transform="translate(-245.078 -82.28)" fill="#f0f0f0"/>
        <path id="Контур_140" data-name="Контур 140" d="M305.649,83.682a1.491,1.491,0,0,1-1.437,1.39,1.262,1.262,0,0,1-1.229-1.294c0-.032,0-.065.006-.1a1.5,1.5,0,0,1,1.441-1.4,1.257,1.257,0,0,1,1.227,1.288C305.656,83.606,305.653,83.644,305.649,83.682Z" transform="translate(-248.954 -82.28)" fill="#f0f0f0"/>
        <path id="Контур_141" data-name="Контур 141" d="M311.926,83.682a1.511,1.511,0,0,1-1.449,1.39,1.246,1.246,0,0,1-1.239-1.253,1.149,1.149,0,0,1,.008-.137,1.507,1.507,0,0,1,1.449-1.4,1.25,1.25,0,0,1,1.24,1.26A1.236,1.236,0,0,1,311.926,83.682Z" transform="translate(-252.774 -82.28)" fill="#f0f0f0"/>
        <path id="Контур_142" data-name="Контур 142" d="M318.224,83.682a1.526,1.526,0,0,1-1.46,1.39,1.238,1.238,0,0,1-1.219-1.39,1.526,1.526,0,0,1,1.46-1.4,1.238,1.238,0,0,1,1.23,1.247A1.214,1.214,0,0,1,318.224,83.682Z" transform="translate(-256.619 -82.28)" fill="#f0f0f0"/>
        <path id="Контур_143" data-name="Контур 143" d="M324.549,83.682a1.557,1.557,0,0,1-1.46,1.39,1.223,1.223,0,0,1-1.219-1.227,1.277,1.277,0,0,1,.012-.164,1.557,1.557,0,0,1,1.472-1.4,1.227,1.227,0,0,1,1.208,1.245A1.241,1.241,0,0,1,324.549,83.682Z" transform="translate(-260.487 -82.28)" fill="#f0f0f0"/>
        <path id="Контур_144" data-name="Контур 144" d="M330.829,83.682a1.557,1.557,0,0,1-1.484,1.39,1.214,1.214,0,0,1-1.2-1.39,1.557,1.557,0,0,1,1.484-1.4,1.215,1.215,0,0,1,1.21,1.22A1.233,1.233,0,0,1,330.829,83.682Z" transform="translate(-264.313 -82.28)" fill="#f0f0f0"/>
      </g>
      <path id="Контур_145" data-name="Контур 145" d="M160.82,79.74h69.457l0,1.9H160.824Z" transform="translate(-160.808 -70.099)" fill="#ffc100"/>
      <path id="Контур_146" data-name="Контур 146" d="M160.81,74.86l1.449,1.9H228.81l1.464-1.9Z" transform="translate(-160.802 -67.119)" fill="#ffc100"/>
      <g id="Сгруппировать_28" data-name="Сгруппировать 28" transform="translate(0.008 7.741)" opacity="0.4">
        <path id="Контур_147" data-name="Контур 147" d="M160.81,74.86l1.449,1.9H228.81l1.464-1.9Z" transform="translate(-160.81 -74.86)"/>
      </g>
      <path id="Контур_148" data-name="Контур 148" d="M160.79,69.96h69.476l0,1.908H160.8Z" transform="translate(-160.79 -64.127)" fill="#ffc100"/>
      <g id="Сгруппировать_29" data-name="Сгруппировать 29" transform="translate(1.452 7.741)" opacity="0.8">
        <path id="Контур_149" data-name="Контур 149" d="M164.52,74.86h66.559l0,1.9H164.524Z" transform="translate(-164.52 -74.86)" fill="#fff"/>
      </g>
      <g id="Сгруппировать_30" data-name="Сгруппировать 30" transform="translate(1.351 47.05)" opacity="0.7">
        <rect id="Прямоугольник_16" data-name="Прямоугольник 16" width="66.68" height="0.837" fill="#fff"/>
      </g>
      <g id="Сгруппировать_31" data-name="Сгруппировать 31" transform="translate(1.487 88.603)" opacity="0.8">
        <rect id="Прямоугольник_17" data-name="Прямоугольник 17" width="66.54" height="0.833" fill="#fff"/>
      </g>
      <rect id="Прямоугольник_18" data-name="Прямоугольник 18" width="8.244" height="8.905" transform="translate(15.171 17.059)" fill="#ffc100"/>
      <rect id="Прямоугольник_19" data-name="Прямоугольник 19" width="8.244" height="8.905" transform="translate(31.004 17.059)" fill="#ffc100"/>
      <rect id="Прямоугольник_20" data-name="Прямоугольник 20" width="8.244" height="8.905" transform="translate(46.837 17.059)" fill="#ffc100"/>
      <rect id="Прямоугольник_21" data-name="Прямоугольник 21" width="8.244" height="8.905" transform="translate(15.171 30.392)" fill="#ffc100"/>
      <rect id="Прямоугольник_22" data-name="Прямоугольник 22" width="8.244" height="8.905" transform="translate(31.004 30.392)" fill="#ffc100"/>
      <rect id="Прямоугольник_23" data-name="Прямоугольник 23" width="8.244" height="8.905" transform="translate(46.837 30.392)" fill="#ffc100"/>
      <rect id="Прямоугольник_24" data-name="Прямоугольник 24" width="8.244" height="8.905" transform="translate(15.171 95.016)" fill="#ffc100"/>
      <rect id="Прямоугольник_25" data-name="Прямоугольник 25" width="8.244" height="8.905" transform="translate(31.004 95.016)" fill="#ffc100"/>
      <rect id="Прямоугольник_26" data-name="Прямоугольник 26" width="8.244" height="8.905" transform="translate(46.837 95.016)" fill="#ffc100"/>
      <rect id="Прямоугольник_27" data-name="Прямоугольник 27" width="8.244" height="8.905" transform="translate(6.339 113.765)" fill="#ffc100"/>
      <rect id="Прямоугольник_28" data-name="Прямоугольник 28" width="8.244" height="8.905" transform="translate(54.772 113.765)" fill="#ffc100"/>
      <rect id="Прямоугольник_29" data-name="Прямоугольник 29" width="8.244" height="8.905" transform="translate(15.171 54.904)" fill="#ffc100"/>
      <rect id="Прямоугольник_30" data-name="Прямоугольник 30" width="8.244" height="8.905" transform="translate(31.004 54.904)" fill="#ffc100"/>
      <rect id="Прямоугольник_31" data-name="Прямоугольник 31" width="8.244" height="8.905" transform="translate(46.837 54.904)" fill="#ffc100"/>
      <rect id="Прямоугольник_32" data-name="Прямоугольник 32" width="8.244" height="8.905" transform="translate(15.171 68.237)" fill="#ffc100"/>
      <rect id="Прямоугольник_33" data-name="Прямоугольник 33" width="8.244" height="8.905" transform="translate(31.004 68.237)" fill="#ffc100"/>
      <rect id="Прямоугольник_34" data-name="Прямоугольник 34" width="8.244" height="8.905" transform="translate(46.837 68.237)" fill="#ffc100"/>
      <g id="Сгруппировать_32" data-name="Сгруппировать 32" transform="translate(25.081 114.809)" opacity="0.8">
        <path id="Контур_150" data-name="Контур 150" d="M225.258,349.82h8.532l-.035,8.859H225.2Z" transform="translate(-225.2 -349.82)" fill="#fff"/>
      </g>
      <g id="Сгруппировать_33" data-name="Сгруппировать 33" transform="translate(35.225 114.809)" opacity="0.8">
        <path id="Контур_151" data-name="Контур 151" d="M251.343,349.82h8.882l-.421,8.859H251.25Z" transform="translate(-251.25 -349.82)" fill="#fff"/>
      </g>
      <path id="Контур_152" data-name="Контур 152" d="M242.351,374.353H219.84l-.09-1.783h22.686Z" transform="translate(-196.791 -248.902)" fill="#ffc100"/>
      <g id="Сгруппировать_34" data-name="Сгруппировать 34" transform="translate(22.959 123.668)" opacity="0.1">
        <path id="Контур_153" data-name="Контур 153" d="M242.351,374.353H219.84l-.09-1.783h22.686Z" transform="translate(-219.75 -372.57)" fill="#fff"/>
      </g>
      <path id="Контур_154" data-name="Контур 154" d="M242,379.236H217.787l-.1-1.756h24.4Z" transform="translate(-195.533 -251.9)" fill="#ffc100"/>
      <g id="Сгруппировать_35" data-name="Сгруппировать 35" transform="translate(21.277 109.665)" opacity="0.4">
        <path id="Контур_155" data-name="Контур 155" d="M241.422,338.615H215.543l-.113-2.005h26.093Z" transform="translate(-215.43 -336.61)" fill="#fff"/>
      </g>
      <path id="Контур_156" data-name="Контур 156" d="M215.72,341.76l3.75,3.139h19.061l3.068-3.139Z" transform="translate(-194.33 -230.089)" fill="#263238"/>
      <path id="Контур_157" data-name="Контур 157" d="M220.22,345.161l1.324,10.514H222.6l-.424-10.514h0a2.131,2.131,0,0,0-1.947,0Z" transform="translate(-197.078 -232.022)" fill="#ffc100"/>
      <path id="Контур_158" data-name="Контур 158" d="M274.938,345.074l-1.3,10.514H272.59l.389-10.514h0a1.776,1.776,0,0,1,1.947,0Z" transform="translate(-229.056 -231.936)" fill="#ffc100"/>
      <path id="Контур_159" data-name="Контур 159" d="M193.44,57.925a2.927,2.927,0,0,1,3.115-2.94,2.986,2.986,0,0,1,2.434,1.067l-1.016.919a1.69,1.69,0,0,0-1.336-.662,1.616,1.616,0,0,0,0,3.232,1.679,1.679,0,0,0,1.336-.662l1.016.923a3,3,0,0,1-2.434,1.067A2.921,2.921,0,0,1,193.44,57.925Z" transform="translate(-180.726 -54.981)" fill="#263238"/>
      <path id="Контур_160" data-name="Контур 160" d="M208.44,57.93a3.151,3.151,0,1,1,3.146,2.944A2.961,2.961,0,0,1,208.44,57.93Zm4.673,0a1.53,1.53,0,1,0-1.526,1.616,1.515,1.515,0,0,0,1.53-1.5C213.117,58.007,213.115,57.968,213.113,57.93Z" transform="translate(-189.885 -54.987)" fill="#263238"/>
      <path id="Контур_161" data-name="Контур 161" d="M231.873,60.938v-3l-1.456,2.442h-.709l-1.449-2.36v2.917h-1.48V55.28h1.32l1.986,3.263,1.947-3.263h1.316v5.658Z" transform="translate(-201.084 -55.164)" fill="#263238"/>
      <path id="Контур_162" data-name="Контур 162" d="M251.637,57.375c0,1.281-.97,2.083-2.512,2.083h-.989v1.48h-1.6V55.28h2.586C250.668,55.28,251.637,56.078,251.637,57.375Zm-1.616,0c0-.526-.331-.833-.993-.833h-.892V58.2h.892c.662,0,.993-.3.993-.822Z" transform="translate(-213.149 -55.164)" fill="#263238"/>
      <path id="Контур_163" data-name="Контур 163" d="M263.62,59.856h-2.395l-.444,1.1H259.15l2.5-5.658h1.577l2.488,5.65h-1.663Zm-.471-1.168-.728-1.807-.724,1.807Z" transform="translate(-220.849 -55.176)" fill="#263238"/>
      <path id="Контур_164" data-name="Контур 164" d="M282.58,55.28v5.658h-1.316l-2.5-3.014v3.014H277.21V55.28h1.316l2.5,3.006V55.28Z" transform="translate(-231.877 -55.164)" fill="#263238"/>
      <path id="Контур_165" data-name="Контур 165" d="M295.808,58.909v2.029h-1.6V58.886L292.05,55.28h1.69l1.343,2.247,1.34-2.247h1.558Z" transform="translate(-240.938 -55.164)" fill="#263238"/>
      <path id="Контур_166" data-name="Контур 166" d="M164.52,74.86h66.559l0,1.9H164.524Z" transform="translate(-163.068 -67.119)" fill="#ffc100"/>
    </g>
    <g id="freepik--Birds--inject-2" transform="translate(79.205 60.544)">
      <path id="Контур_167" data-name="Контур 167" d="M372.771,79.967a5.053,5.053,0,0,1-.814-.265c-.491-.191-1.118-.514-1.776-.829a5.4,5.4,0,0,0-1.737-.522c-.463-.051-.779,0-.822-.121s.23-.347.779-.452a3.577,3.577,0,0,1,2.114.362,6.527,6.527,0,0,1,1.647,1.223C372.545,79.726,372.771,79.967,372.771,79.967Z" transform="translate(-269.414 -74.444)" fill="#ffc100"/>
      <path id="Контур_168" data-name="Контур 168" d="M382.176,77.232l-.588.23c-.35.144-.779.347-1.285.561-.985.436-1.826.888-1.947.689-.062-.09.066-.312.35-.584A4.39,4.39,0,0,1,380,77.279a2.95,2.95,0,0,1,1.558-.218,2.333,2.333,0,0,1,.471.113Z" transform="translate(-275.96 -74.01)" fill="#ffc100"/>
      <path id="Контур_169" data-name="Контур 169" d="M360.587,85.09l-.16-.1c-.1-.066-.253-.152-.436-.249a9.341,9.341,0,0,0-1.441-.627c-1.145-.413-2.169-.319-2.2-.495,0-.078.234-.21.678-.273a3.858,3.858,0,0,1,1.721.191,3.431,3.431,0,0,1,1.433.966,2.627,2.627,0,0,1,.312.421Z" transform="translate(-262.533 -77.85)" fill="#ffc100"/>
      <path id="Контур_170" data-name="Контур 170" d="M365.879,81.657l-.413.238-.915.51c-.689.389-1.223.822-1.355.7-.058-.058,0-.241.175-.479a2.817,2.817,0,0,1,.888-.779,2.336,2.336,0,0,1,1.137-.273A1.933,1.933,0,0,1,365.879,81.657Z" transform="translate(-266.699 -76.785)" fill="#ffc100"/>
      <path id="Контур_171" data-name="Контур 171" d="M354.467,74.7s-.389-.136-.981-.389-1.39-.6-2.266-.892a6.232,6.232,0,0,0-2.294-.319c-.6.035-.981.152-1.036.043s.261-.389.931-.6a4.574,4.574,0,0,1,2.652.109,6.665,6.665,0,0,1,2.227,1.32A9.4,9.4,0,0,1,354.467,74.7Z" transform="translate(-257.364 -71.177)" fill="#ffc100"/>
      <path id="Контур_172" data-name="Контур 172" d="M363.788,69.447l-.218.062c-.144.035-.343.1-.58.171a16.451,16.451,0,0,0-1.752.693c-1.332.6-2.188,1.48-2.371,1.34-.086-.066.023-.389.362-.81a4.724,4.724,0,0,1,1.671-1.266,4.193,4.193,0,0,1,2.056-.358,3.276,3.276,0,0,1,.623.105Z" transform="translate(-264.052 -69.266)" fill="#ffc100"/>
      <path id="Контур_173" data-name="Контур 173" d="M131.845,105.226a5.577,5.577,0,0,1-.814-.265c-.491-.191-1.121-.514-1.776-.833a5.508,5.508,0,0,0-1.741-.522c-.463-.051-.779,0-.822-.121s.23-.347.779-.448a3.543,3.543,0,0,1,2.114.362,6.365,6.365,0,0,1,1.647,1.219C131.619,104.98,131.845,105.226,131.845,105.226Z" transform="translate(-122.301 -89.867)" fill="#ffc100"/>
      <path id="Контур_174" data-name="Контур 174" d="M141.248,102.488l-.592.23c-.35.14-.779.343-1.285.561-.985.432-1.822.884-1.947.689-.066-.093.066-.312.347-.588a4.444,4.444,0,0,1,1.293-.849,3.01,3.01,0,0,1,1.558-.218,2.507,2.507,0,0,1,.467.113A1.593,1.593,0,0,1,141.248,102.488Z" transform="translate(-128.845 -89.43)" fill="#ffc100"/>
      <path id="Контур_175" data-name="Контур 175" d="M119.661,110.34l-.164-.1c-.1-.066-.249-.152-.432-.249a9.705,9.705,0,0,0-1.441-.627c-1.145-.389-2.173-.319-2.2-.495,0-.078.238-.21.678-.273a3.836,3.836,0,0,1,1.725.195,3.415,3.415,0,0,1,1.433.962,2.566,2.566,0,0,1,.308.421Z" transform="translate(-115.42 -93.268)" fill="#ffc100"/>
      <path id="Контур_176" data-name="Контур 176" d="M124.952,106.946l-.409.238-.915.541c-.693.389-1.223.822-1.355.7-.062-.055,0-.238.175-.479a2.773,2.773,0,0,1,.888-.755,2.313,2.313,0,0,1,1.133-.276A1.949,1.949,0,0,1,124.952,106.946Z" transform="translate(-119.59 -92.252)" fill="#ffc100"/>
    </g>
  </g>
</svg>
