<svg xmlns="http://www.w3.org/2000/svg" width="413.929" height="372.029" viewBox="0 0 413.929 372.029">
  <g id="Company" transform="translate(-42.902 -54.981)">
    <g id="freepik--background-simple--inject-2">
      <path id="Контур_201" data-name="Контур 201" d="M134,151.81c-20.46,10.64-36.37,28.49-48.88,47.86-17.79,27.53-29.81,60.52-24.72,92.9s30.9,62.76,63.6,65.34c41.86,3.32,75.93-36.28,117.69-40.64,15.91-1.66,31.84,2,47.8,3,47.22,3,95.33-18.27,124.85-55.24,19.34-24.21,30.88-56.15,24.83-86.54-6.28-31.58-31.24-57.65-61.11-69.69s-63.85-11.2-94.81-2.33c-28.67,8.22-51.54,24-77.23,38.12-10.37,5.71-22.13-2-33.71-2.11A81.388,81.388,0,0,0,134,151.81Z" fill="#ffc100"/>
      <path id="Контур_202" data-name="Контур 202" d="M134,151.81c-20.46,10.64-36.37,28.49-48.88,47.86-17.79,27.53-29.81,60.52-24.72,92.9s30.9,62.76,63.6,65.34c41.86,3.32,75.93-36.28,117.69-40.64,15.91-1.66,31.84,2,47.8,3,47.22,3,95.33-18.27,124.85-55.24,19.34-24.21,30.88-56.15,24.83-86.54-6.28-31.58-31.24-57.65-61.11-69.69s-63.85-11.2-94.81-2.33c-28.67,8.22-51.54,24-77.23,38.12-10.37,5.71-22.13-2-33.71-2.11A81.388,81.388,0,0,0,134,151.81Z" fill="#fff" opacity="0.9" style="isolation: isolate"/>
    </g>
    <g id="freepik--Shadow--inject-2">
      <ellipse id="freepik--path--inject-2" cx="193.89" cy="11.32" rx="193.89" ry="11.32" transform="translate(56.11 404.37)" fill="#f5f5f5"/>
    </g>
    <g id="freepik--Company--inject-2">
      <path id="Контур_203" data-name="Контур 203" d="M160.83,84.62l3.73,4.82H335.42l3.76-4.82Z" fill="#ffc100"/>
      <g id="Сгруппировать_87" data-name="Сгруппировать 87" opacity="0.4">
        <path id="Контур_204" data-name="Контур 204" d="M160.83,84.62l3.73,4.82H335.42l3.76-4.82Z"/>
      </g>
      <rect id="Прямоугольник_57" data-name="Прямоугольник 57" width="171.25" height="303.58" transform="translate(164.21 78.41)" fill="#ffc100"/>
      <g id="Сгруппировать_88" data-name="Сгруппировать 88" opacity="0.4">
        <rect id="Прямоугольник_58" data-name="Прямоугольник 58" width="171.25" height="303.58" transform="translate(164.21 78.41)" fill="#fff"/>
      </g>
      <g id="Сгруппировать_89" data-name="Сгруппировать 89" opacity="0.8">
        <path id="Контур_205" data-name="Контур 205" d="M171.15,85.88a3.109,3.109,0,0,1-3.06,3.57,4,4,0,0,1-3.82-3.57,3.12,3.12,0,0,1,2.6-3.563,3.173,3.173,0,0,1,.467-.037A4,4,0,0,1,171.15,85.88Z" fill="#f0f0f0"/>
        <path id="Контур_206" data-name="Контур 206" d="M177.46,85.88a3.14,3.14,0,0,1-2.68,3.54,2.955,2.955,0,0,1-.42.03,4,4,0,0,1-3.78-3.57,3.141,3.141,0,0,1,3.09-3.6A4,4,0,0,1,177.46,85.88Z" fill="#f0f0f0"/>
        <path id="Контур_207" data-name="Контур 207" d="M183.76,85.88a3.16,3.16,0,0,1-2.723,3.543,3.1,3.1,0,0,1-.4.027,3.92,3.92,0,0,1-3.76-3.57,3.17,3.17,0,0,1,2.711-3.571A3.281,3.281,0,0,1,180,82.28,3.921,3.921,0,0,1,183.76,85.88Z" fill="#f0f0f0"/>
        <path id="Контур_208" data-name="Контур 208" d="M190.06,85.88a3.2,3.2,0,0,1-2.808,3.549,3.269,3.269,0,0,1-.342.021,3.889,3.889,0,0,1-3.73-3.57,3.209,3.209,0,0,1,2.8-3.576,3.163,3.163,0,0,1,.364-.024A3.88,3.88,0,0,1,190.06,85.88Z" fill="#f0f0f0"/>
        <path id="Контур_209" data-name="Контур 209" d="M196.37,85.88a3.23,3.23,0,0,1-2.872,3.552c-.1.011-.205.017-.308.018a3.85,3.85,0,0,1-3.7-3.57,3.229,3.229,0,0,1,3.18-3.6A3.839,3.839,0,0,1,196.37,85.88Z" fill="#f0f0f0"/>
        <path id="Контур_210" data-name="Контур 210" d="M202.67,85.88a3.26,3.26,0,0,1-2.935,3.555c-.091.009-.183.014-.275.015a3.809,3.809,0,0,1-3.67-3.57,3.259,3.259,0,0,1,2.9-3.582c.1-.011.205-.017.308-.018A3.8,3.8,0,0,1,202.67,85.88Z" fill="#f0f0f0"/>
        <path id="Контур_211" data-name="Контур 211" d="M209,85.88a3.289,3.289,0,0,1-3,3.558c-.08.007-.161.011-.242.012a3.771,3.771,0,0,1-3.64-3.57,3.28,3.28,0,0,1,2.944-3.585c.1-.009.191-.014.286-.015A3.78,3.78,0,0,1,209,85.88Z" fill="#f0f0f0"/>
        <path id="Контур_212" data-name="Контур 212" d="M215.28,85.88a3.32,3.32,0,0,1-3.06,3.561c-.074,0-.147.008-.22.009a3.729,3.729,0,0,1-3.61-3.57,3.319,3.319,0,0,1,3.028-3.588c.077-.007.154-.011.232-.012A3.74,3.74,0,0,1,215.28,85.88Z" fill="#f0f0f0"/>
        <path id="Контур_213" data-name="Контур 213" d="M221.58,85.88a3.35,3.35,0,0,1-3.122,3.563c-.056,0-.112.006-.168.007a3.7,3.7,0,0,1-3.59-3.57,3.35,3.35,0,0,1,3.09-3.591q.105-.008.21-.009A3.69,3.69,0,0,1,221.58,85.88Z" fill="#f0f0f0"/>
        <path id="Контур_214" data-name="Контур 214" d="M227.89,85.88a3.39,3.39,0,0,1-3.205,3.566l-.125,0A3.65,3.65,0,0,1,221,85.88a3.38,3.38,0,0,1,3.152-3.593c.056,0,.112-.006.168-.007A3.661,3.661,0,0,1,227.89,85.88Z" fill="#f0f0f0"/>
        <path id="Контур_215" data-name="Контур 215" d="M234.19,85.88a3.42,3.42,0,0,1-3.266,3.567l-.084,0a3.629,3.629,0,0,1-3.53-3.57,3.41,3.41,0,0,1,3.214-3.595c.045,0,.091,0,.136-.005A3.62,3.62,0,0,1,234.19,85.88Z" fill="#f0f0f0"/>
        <path id="Контур_216" data-name="Контур 216" d="M240.49,85.88a3.45,3.45,0,0,1-3.327,3.569h-.053a3.6,3.6,0,0,1-3.5-3.57,3.45,3.45,0,0,1,3.3-3.6l.084,0A3.58,3.58,0,0,1,240.49,85.88Z" fill="#f0f0f0"/>
        <path id="Контур_217" data-name="Контур 217" d="M246.8,85.88a3.48,3.48,0,0,1-3.388,3.569h-.022a3.55,3.55,0,0,1-3.47-3.57,3.48,3.48,0,0,1,3.357-3.6h.053A3.56,3.56,0,0,1,246.8,85.88Z" fill="#f0f0f0"/>
        <path id="Контур_218" data-name="Контур 218" d="M253.1,85.88a3.44,3.44,0,1,1-3.44-3.6,3.51,3.51,0,0,1,3.441,3.578Z" fill="#f0f0f0"/>
        <path id="Контур_219" data-name="Контур 219" d="M259.4,85.88a3.54,3.54,0,0,1-3.46,3.57,3.48,3.48,0,0,1-3.411-3.548V85.88a3.54,3.54,0,0,1,3.46-3.6,3.48,3.48,0,0,1,3.411,3.547Z" fill="#f0f0f0"/>
        <path id="Контур_220" data-name="Контур 220" d="M265.71,85.88a3.58,3.58,0,0,1-3.5,3.57,3.449,3.449,0,0,1-3.381-3.517V85.88a3.58,3.58,0,0,1,3.49-3.6,3.459,3.459,0,0,1,3.392,3.526C265.712,85.831,265.711,85.855,265.71,85.88Z" fill="#f0f0f0"/>
        <path id="Контур_221" data-name="Контур 221" d="M272,85.88a3.62,3.62,0,0,1-3.52,3.57,3.43,3.43,0,0,1-3.362-3.5l0-.074a3.62,3.62,0,0,1,3.53-3.6A3.42,3.42,0,0,1,272,85.765C272,85.8,272,85.842,272,85.88Z" fill="#f0f0f0"/>
        <path id="Контур_222" data-name="Контур 222" d="M278.32,85.88a3.66,3.66,0,0,1-3.56,3.57,3.381,3.381,0,0,1-3.325-3.434c0-.045,0-.091.005-.136a3.65,3.65,0,0,1,3.55-3.6,3.39,3.39,0,0,1,3.336,3.443C278.325,85.775,278.323,85.828,278.32,85.88Z" fill="#f0f0f0"/>
        <path id="Контур_223" data-name="Контур 223" d="M284.62,85.88A3.7,3.7,0,0,1,281,89.45a3.36,3.36,0,0,1-3.306-3.413c0-.052,0-.105.006-.157a3.69,3.69,0,0,1,3.58-3.6,3.35,3.35,0,0,1,3.349,3.351Q284.629,85.755,284.62,85.88Z" fill="#f0f0f0"/>
        <path id="Контур_224" data-name="Контур 224" d="M290.92,85.88a3.72,3.72,0,0,1-3.6,3.57,3.331,3.331,0,0,1-3.329-3.331c0-.08,0-.16.009-.239a3.73,3.73,0,0,1,3.61-3.6,3.32,3.32,0,0,1,3.322,3.318Q290.932,85.739,290.92,85.88Z" fill="#f0f0f0"/>
        <path id="Контур_225" data-name="Контур 225" d="M297.23,85.88a3.771,3.771,0,0,1-3.64,3.57,3.29,3.29,0,0,1-3.252-3.328c0-.081,0-.161.012-.242a3.76,3.76,0,0,1,3.64-3.6,3.3,3.3,0,0,1,3.253,3.346C297.242,85.711,297.238,85.8,297.23,85.88Z" fill="#f0f0f0"/>
        <path id="Контур_226" data-name="Контур 226" d="M303.53,85.88a3.8,3.8,0,0,1-3.66,3.57,3.27,3.27,0,0,1-3.234-3.306c0-.088.006-.176.014-.264a3.8,3.8,0,0,1,3.67-3.6,3.261,3.261,0,0,1,3.228,3.292C303.547,85.675,303.541,85.778,303.53,85.88Z" fill="#f0f0f0"/>
        <path id="Контур_227" data-name="Контур 227" d="M309.83,85.88a3.829,3.829,0,0,1-3.69,3.57,3.24,3.24,0,0,1-3.156-3.322c0-.083.008-.166.016-.248a3.839,3.839,0,0,1,3.7-3.6,3.229,3.229,0,0,1,3.15,3.308C309.848,85.685,309.841,85.783,309.83,85.88Z" fill="#f0f0f0"/>
        <path id="Контур_228" data-name="Контур 228" d="M316.14,85.88a3.88,3.88,0,0,1-3.72,3.57,3.2,3.2,0,0,1-3.181-3.218,2.954,2.954,0,0,1,.021-.352,3.87,3.87,0,0,1,3.72-3.6,3.21,3.21,0,0,1,3.184,3.236A3.168,3.168,0,0,1,316.14,85.88Z" fill="#f0f0f0"/>
        <path id="Контур_229" data-name="Контур 229" d="M322.44,85.88a3.919,3.919,0,0,1-3.75,3.57,3.179,3.179,0,0,1-3.13-3.57,3.92,3.92,0,0,1,3.75-3.6,3.18,3.18,0,0,1,3.158,3.2A3.114,3.114,0,0,1,322.44,85.88Z" fill="#f0f0f0"/>
        <path id="Контур_230" data-name="Контур 230" d="M328.75,85.88A4,4,0,0,1,325,89.45a3.141,3.141,0,0,1-3.13-3.15,3.274,3.274,0,0,1,.03-.42,4,4,0,0,1,3.78-3.6,3.15,3.15,0,0,1,3.1,3.2A3.188,3.188,0,0,1,328.75,85.88Z" fill="#f0f0f0"/>
        <path id="Контур_231" data-name="Контур 231" d="M335.05,85.88a4,4,0,0,1-3.81,3.57,3.117,3.117,0,0,1-3.07-3.57,4,4,0,0,1,3.81-3.6,3.12,3.12,0,0,1,3.107,3.133A3.182,3.182,0,0,1,335.05,85.88Z" fill="#f0f0f0"/>
      </g>
      <path id="Контур_232" data-name="Контур 232" d="M160.82,79.74H339.19l-.01,4.88H160.83Z" fill="#ffc100"/>
      <path id="Контур_233" data-name="Контур 233" d="M160.81,74.86l3.72,4.88H335.44l3.76-4.88Z" fill="#ffc100"/>
      <g id="Сгруппировать_90" data-name="Сгруппировать 90" opacity="0.4">
        <path id="Контур_234" data-name="Контур 234" d="M160.81,74.86l3.72,4.88H335.44l3.76-4.88Z"/>
      </g>
      <path id="Контур_235" data-name="Контур 235" d="M160.79,69.96H339.21l-.01,4.9H160.81Z" fill="#ffc100"/>
      <g id="Сгруппировать_91" data-name="Сгруппировать 91" opacity="0.8">
        <path id="Контур_236" data-name="Контур 236" d="M164.52,74.86H335.45l-.01,4.88H164.53Z" fill="#fff"/>
      </g>
      <g id="Сгруппировать_92" data-name="Сгруппировать 92" opacity="0.7">
        <rect id="Прямоугольник_59" data-name="Прямоугольник 59" width="171.24" height="2.15" transform="translate(164.26 175.81)" fill="#fff"/>
      </g>
      <g id="Сгруппировать_93" data-name="Сгруппировать 93" opacity="0.8">
        <rect id="Прямоугольник_60" data-name="Прямоугольник 60" width="170.88" height="2.14" transform="translate(164.61 282.52)" fill="#fff"/>
      </g>
      <rect id="Прямоугольник_61" data-name="Прямоугольник 61" width="21.17" height="22.87" transform="translate(199.75 98.79)" fill="#ffc100"/>
      <rect id="Прямоугольник_62" data-name="Прямоугольник 62" width="21.17" height="22.87" transform="translate(240.41 98.79)" fill="#ffc100"/>
      <rect id="Прямоугольник_63" data-name="Прямоугольник 63" width="21.17" height="22.87" transform="translate(281.07 98.79)" fill="#ffc100"/>
      <rect id="Прямоугольник_64" data-name="Прямоугольник 64" width="21.17" height="22.87" transform="translate(199.75 133.03)" fill="#ffc100"/>
      <rect id="Прямоугольник_65" data-name="Прямоугольник 65" width="21.17" height="22.87" transform="translate(240.41 133.03)" fill="#ffc100"/>
      <rect id="Прямоугольник_66" data-name="Прямоугольник 66" width="21.17" height="22.87" transform="translate(281.07 133.03)" fill="#ffc100"/>
      <rect id="Прямоугольник_67" data-name="Прямоугольник 67" width="21.17" height="22.87" transform="translate(199.75 298.99)" fill="#ffc100"/>
      <rect id="Прямоугольник_68" data-name="Прямоугольник 68" width="21.17" height="22.87" transform="translate(240.41 298.99)" fill="#ffc100"/>
      <rect id="Прямоугольник_69" data-name="Прямоугольник 69" width="21.17" height="22.87" transform="translate(281.07 298.99)" fill="#ffc100"/>
      <rect id="Прямоугольник_70" data-name="Прямоугольник 70" width="21.17" height="22.87" transform="translate(177.07 347.14)" fill="#ffc100"/>
      <rect id="Прямоугольник_71" data-name="Прямоугольник 71" width="21.17" height="22.87" transform="translate(301.45 347.14)" fill="#ffc100"/>
      <rect id="Прямоугольник_72" data-name="Прямоугольник 72" width="21.17" height="22.87" transform="translate(199.75 195.98)" fill="#ffc100"/>
      <rect id="Прямоугольник_73" data-name="Прямоугольник 73" width="21.17" height="22.87" transform="translate(240.41 195.98)" fill="#ffc100"/>
      <rect id="Прямоугольник_74" data-name="Прямоугольник 74" width="21.17" height="22.87" transform="translate(281.07 195.98)" fill="#ffc100"/>
      <rect id="Прямоугольник_75" data-name="Прямоугольник 75" width="21.17" height="22.87" transform="translate(199.75 230.22)" fill="#ffc100"/>
      <rect id="Прямоугольник_76" data-name="Прямоугольник 76" width="21.17" height="22.87" transform="translate(240.41 230.22)" fill="#ffc100"/>
      <rect id="Прямоугольник_77" data-name="Прямоугольник 77" width="21.17" height="22.87" transform="translate(281.07 230.22)" fill="#ffc100"/>
      <g id="Сгруппировать_94" data-name="Сгруппировать 94" opacity="0.8">
        <path id="Контур_237" data-name="Контур 237" d="M225.35,349.82h21.91l-.09,22.75H225.2Z" fill="#fff"/>
      </g>
      <g id="Сгруппировать_95" data-name="Сгруппировать 95" opacity="0.8">
        <path id="Контур_238" data-name="Контур 238" d="M251.49,349.82H274.3l-1.08,22.75H251.25Z" fill="#fff"/>
      </g>
      <path id="Контур_239" data-name="Контур 239" d="M277.79,377.15H219.98l-.23-4.58h58.26Z" fill="#ffc100"/>
      <g id="Сгруппировать_96" data-name="Сгруппировать 96" opacity="0.1">
        <path id="Контур_240" data-name="Контур 240" d="M277.79,377.15H219.98l-.23-4.58h58.26Z" fill="#fff"/>
      </g>
      <path id="Контур_241" data-name="Контур 241" d="M280.12,381.99H217.94l-.25-4.51h62.66Z" fill="#ffc100"/>
      <g id="Сгруппировать_97" data-name="Сгруппировать 97" opacity="0.4">
        <path id="Контур_242" data-name="Контур 242" d="M282.18,341.76H215.72l-.29-5.15h67.01Z" fill="#fff"/>
      </g>
      <path id="Контур_243" data-name="Контур 243" d="M215.72,341.76l9.63,8.06H274.3l7.88-8.06Z" fill="#263238"/>
      <path id="Контур_244" data-name="Контур 244" d="M220.22,345.53l3.4,27h2.7l-1.09-27h0a5.472,5.472,0,0,0-5,0Z" fill="#ffc100"/>
      <path id="Контур_245" data-name="Контур 245" d="M278.62,345.53l-3.33,27h-2.7l1-27h0a4.561,4.561,0,0,1,5,0Z" fill="#ffc100"/>
      <path id="Контур_246" data-name="Контур 246" d="M193.44,62.54c0-4.42,3.39-7.55,8-7.55a7.67,7.67,0,0,1,6.25,2.74l-2.61,2.36a4.34,4.34,0,0,0-3.43-1.7,4.15,4.15,0,0,0,0,8.3,4.311,4.311,0,0,0,3.43-1.7l2.61,2.37a7.7,7.7,0,0,1-6.25,2.74C196.83,70.1,193.44,67,193.44,62.54Z" fill="#263238"/>
      <path id="Контур_247" data-name="Контур 247" d="M208.44,62.54c0-4.35,3.43-7.55,8.08-7.55s8.07,3.2,8.07,7.55-3.42,7.56-8.07,7.56S208.44,66.9,208.44,62.54Zm12,0a3.93,3.93,0,1,0-3.92,4.15,3.891,3.891,0,0,0,3.929-3.851C220.45,62.739,220.447,62.639,220.44,62.54Z" fill="#263238"/>
      <path id="Контур_248" data-name="Контур 248" d="M239.86,69.81v-7.7l-3.74,6.27H234.3l-3.72-6.06v7.49h-3.8V55.28h3.39l5.1,8.38,5-8.38h3.38V69.81Z" fill="#263238"/>
      <path id="Контур_249" data-name="Контур 249" d="M259.63,60.66c0,3.29-2.49,5.35-6.45,5.35h-2.54v3.8h-4.1V55.28h6.64C257.14,55.28,259.63,57.33,259.63,60.66Zm-4.15,0c0-1.35-.85-2.14-2.55-2.14h-2.29v4.25h2.29c1.7,0,2.55-.77,2.55-2.11Z" fill="#263238"/>
      <path id="Контур_250" data-name="Контур 250" d="M270.63,67h-6.15l-1.14,2.83h-4.19l6.41-14.53h4.05L276,69.81h-4.27Zm-1.21-3-1.87-4.64L265.69,64Z" fill="#263238"/>
      <path id="Контур_251" data-name="Контур 251" d="M291,55.28V69.81h-3.38l-6.41-7.74v7.74h-4V55.28h3.38L287,63V55.28Z" fill="#263238"/>
      <path id="Контур_252" data-name="Контур 252" d="M301.7,64.6v5.21h-4.11V64.54l-5.54-9.26h4.34l3.45,5.77,3.44-5.77h4Z" fill="#263238"/>
      <path id="Контур_253" data-name="Контур 253" d="M164.52,74.86H335.45l-.01,4.88H164.53Z" fill="#ffc100"/>
    </g>
    <g id="freepik--character-2--inject-2">
      <path id="Контур_254" data-name="Контур 254" d="M362.18,231.13c-5.37,7.24-7.45,10.57-9.53,12.62-2.27,2.24-25.45.53-28.25-.64-2.14-.9-.66-3.68.35-3.54,3.82.53,18.16-2,22.41-3.84.74-.33,8-9.16,8-9.16Z" fill="#ffb573"/>
      <path id="Контур_255" data-name="Контур 255" d="M353.36,226.34c4.54-8.33,13.49-14.44,16.2-14.79,3.9-.51,5.21.27,4.07,3.4-1.94,5.33-5.51,10.93-10.54,17.71Z" fill="#ffc100"/>
      <g id="Сгруппировать_98" data-name="Сгруппировать 98" opacity="0.1">
        <path id="Контур_256" data-name="Контур 256" d="M353.36,226.34c4.54-8.33,13.49-14.44,16.2-14.79,3.9-.51,5.21.27,4.07,3.4-1.94,5.33-5.51,10.93-10.54,17.71Z"/>
      </g>
      <path id="Контур_257" data-name="Контур 257" d="M369.56,211.55a59.668,59.668,0,0,1,6.7-2,88.194,88.194,0,0,1,12.61-2.08,71.4,71.4,0,0,1,7.44-.41,3.209,3.209,0,0,1,.75.08,3.73,3.73,0,0,1,2.75,4.38c-4.17,22.05-4.37,31.83-3.77,43.19l-25.38.9a1.35,1.35,0,0,1-1.34-1.14c-1.13-5.72-4.64-18.43-4.64-18.43-3.17-3.05-3.7-6.81-4-9-.18-1.19,2.48-2.48,5.37-8.78C366,218.26,368.26,212,369.56,211.55Z" fill="#ffc100"/>
      <path id="Контур_258" data-name="Контур 258" d="M385.6,255.06l-9.25.34c-1.38-11-1.12-20.71-.64-31.65A315.5,315.5,0,0,0,385.6,255.06Z" fill="#263238"/>
      <path id="Контур_259" data-name="Контур 259" d="M388.28,339.66c-.23-.51-.46-1-.68-1.58C377.62,314.23,370,266,370,266l17.79-9s5.06,42.38,12,69.95c1.06,4.2,2.15,8,3.28,11.33l-12.15,5.58Z" fill="#ffb573"/>
      <g id="Сгруппировать_99" data-name="Сгруппировать 99" opacity="0.8">
        <path id="Контур_260" data-name="Контур 260" d="M388.28,339.66c-.23-.51-.46-1-.68-1.58C377.62,314.23,370,266,370,266l17.79-9s5.06,42.38,12,69.95c1.06,4.2,2.15,8,3.28,11.33l-12.15,5.58Z" fill="#263238"/>
      </g>
      <path id="Контур_261" data-name="Контур 261" d="M371.31,259.78s-8.14,57-6.22,80.31c2,24.57,9.3,66.64,9.3,66.64l6-.41a286.712,286.712,0,0,0-1.49-65.88c13.75-35.39,15.29-79.76,15.29-79.76Z" fill="#ffb573"/>
      <path id="Контур_262" data-name="Контур 262" d="M371.31,259.78s-8.14,57-6.22,80.31c2,24.57,9.3,66.64,9.3,66.64l6-.41a286.712,286.712,0,0,0-1.49-65.88c13.75-35.39,15.29-79.76,15.29-79.76Z" fill="#263238" opacity="0.8" style="isolation: isolate"/>
      <path id="Контур_263" data-name="Контур 263" d="M381.17,408.2a5.879,5.879,0,0,1,.67,2.58c.16,3.29.39,12.06.39,12.06l-.72.05s-.44-4.3-.94-6.45-.83-.3-1.93,2.05-4.19,4.76-8.89,5.2c-5.51.51-7.76.41-6.25-1.14s5.12-2.71,5.12-2.71,4.8-8.21,4.52-13.75c-.3-5.91,6.53-.36,7.85-1.19C381.46,405,380.9,407.72,381.17,408.2Z" fill="#263238"/>
      <path id="Контур_264" data-name="Контур 264" d="M400.19,329c-3.49.75-6.59,3.32-15.76,4.24h-.55c-.39,0-.79.07-1.21.09-2.46.13-16.55-.53-19.16-2.06,2.27-23.45,6.74-73.28,6.74-73.28L381,256.71l13.87-.42s15.3,15.8,11.78,30.14C401.4,307.88,404,311.21,400.19,329Z" fill="#263238"/>
      <path id="Контур_265" data-name="Контур 265" d="M395.91,243.44a3.5,3.5,0,0,1-1-2.84s0-1.58-.05-4c-.08-7-.14-21,.59-22.86,1.6-4,4.34-6.19,5.77-3.85,1.68,2.74,1.8,23.53,1.8,23.53C402.59,247.18,397.55,245.36,395.91,243.44Z" fill="#ffb573"/>
      <path id="Контур_266" data-name="Контур 266" d="M392.58,206.65l-.84,1.51C388.5,214,381,221.61,378.07,222.35a10.847,10.847,0,0,0-3.07-4.08,6.4,6.4,0,0,0-3.28,3.85c-2.51-4.08-2.29-9.24-1.66-11.79h0c1.48-.45,3.06-.91,4.56-1.28a91.062,91.062,0,0,1,12.61-2A42.563,42.563,0,0,1,392.58,206.65Z" fill="#ffc100"/>
      <path id="Контур_267" data-name="Контур 267" d="M392.58,206.65l-.84,1.51C388.5,214,381,221.61,378.07,222.35a37.072,37.072,0,0,1-1.39-4.34c-1.57.78-2.73,3-3.25,4.68-2.52-4.08-4-9.81-3.37-12.36h0c1.48-.45,3.06-.91,4.56-1.28a91.062,91.062,0,0,1,12.61-2A42.563,42.563,0,0,1,392.58,206.65Z" fill="#fff" opacity="0.8" style="isolation: isolate"/>
      <path id="Контур_268" data-name="Контур 268" d="M373.28,235.26l-3.48-4.72-3.11,6.16s3.18,1.78,5.82,1.18Z" fill="#ffb573"/>
      <path id="Контур_269" data-name="Контур 269" d="M364.29,229.09l-1.48,4.98,3.88,2.6,3.11-6.13Z" fill="#ffb573"/>
      <path id="Контур_270" data-name="Контур 270" d="M396,257.61l-12.85.35h-1.08l-2.78.08h-1.06l-7.55.2c-.23,0-.44-.12-.45-.27l-.3-2.42c0-.16.19-.31.45-.32l7.46-.3h.89l3.69-.14h.87l12.38-.49a.5.5,0,0,1,.45.19l.3,2.75C396.54,257.4,396.32,257.6,396,257.61Z" fill="#ffc100"/>
      <path id="Контур_271" data-name="Контур 271" d="M396,257.61l-12.85.35h-1.08l-2.78.08h-1.06l-7.55.2c-.23,0-.44-.12-.45-.27l-.3-2.42c0-.16.19-.31.45-.32l7.46-.3h.89l3.69-.14h.87l12.38-.49a.5.5,0,0,1,.45.19l.3,2.75C396.54,257.4,396.32,257.6,396,257.61Z" fill="#fff" opacity="0.2" style="isolation: isolate"/>
      <path id="Контур_272" data-name="Контур 272" d="M374.26,258.51h.82a.23.23,0,0,0,.275-.174.221.221,0,0,0,0-.036l-.46-3.43c0-.1-.16-.19-.33-.19h-.82c-.17,0-.29.1-.28.2l.46,3.44A.32.32,0,0,0,374.26,258.51Z" fill="#263238"/>
      <path id="Контур_273" data-name="Контур 273" d="M388.58,258.3h.78a.22.22,0,0,0,.266-.161l0-.019-.47-3.45c0-.09-.16-.18-.31-.17h-.78c-.16,0-.27.08-.26.19l.46,3.42C388.28,258.23,388.42,258.3,388.58,258.3Z" fill="#263238"/>
      <path id="Контур_274" data-name="Контур 274" d="M392.84,273.11l-2-.71,8.9-26.63c1.42-4.23.88-8.27-4.37-10.12-4.91-1.73-8.77.74-10.2,5l-9,26.55-2-.71,9-26.53c1.66-4.91,4.86-8.24,12.58-5.51s7.57,7.13,5.92,12.06Z" fill="#ffc100"/>
      <path id="Контур_275" data-name="Контур 275" d="M397.87,289.54l-39-14,8.84-25.82a4.741,4.741,0,0,1,5.981-3.027l.079.027,28.42,10.1a6.39,6.39,0,0,1,3.85,8Z" fill="#ffc100"/>
      <path id="Контур_276" data-name="Контур 276" d="M393.55,288l-30.39-10.92a4.69,4.69,0,0,1-2.77-5.95l7.33-21.41a4.74,4.74,0,0,1,5.981-3.027l.079.027,28.42,10.1a6.39,6.39,0,0,1,3.85,8l-6.71,20.27a4.511,4.511,0,0,1-5.652,2.956Z" fill="#fff" opacity="0.4" style="isolation: isolate"/>
      <g id="Сгруппировать_100" data-name="Сгруппировать 100" opacity="0.3">
        <path id="Контур_277" data-name="Контур 277" d="M392.84,273.11l-1.57,1.37-.41-2.08,8.9-26.63c1.42-4.23.88-8.27-4.37-10.12-4.91-1.73-8.77.74-10.2,5l-9,26.55-1.62,1.35-.35-2.06,9-26.53c1.66-4.91,4.86-8.24,12.58-5.51s7.57,7.13,5.92,12.06Z" fill="#fff"/>
      </g>
      <path id="Контур_278" data-name="Контур 278" d="M380.24,257.08l-3.25-1.16.41-1.23,3.25,1.16Z" fill="#ffc100"/>
      <path id="Контур_279" data-name="Контур 279" d="M377.54,265.06l-3.26-1.16.42-1.23,3.25,1.16Z" fill="#ffc100"/>
      <path id="Контур_280" data-name="Контур 280" d="M396.95,263.04l-3.26-1.16.41-1.24,3.26,1.16Z" fill="#ffc100"/>
      <path id="Контур_281" data-name="Контур 281" d="M394.28,271.05l-3.27-1.17.41-1.24,3.27,1.17Z" fill="#ffc100"/>
      <path id="Контур_282" data-name="Контур 282" d="M390.5,261.53l-6.98-2.49.88-2.64,6.98,2.49Z" fill="#fff"/>
      <path id="Контур_283" data-name="Контур 283" d="M398.92,244.67c-3.13,1.8-15.79-.23-26.5-6.67a5.96,5.96,0,0,0-1.19-.39c-.67-.49,1-1.62,2-2.14.55-.28,24.18,2.71,25.81,2.93C400.89,243.22,399.22,243.16,398.92,244.67Z" fill="#ffb573"/>
      <path id="Контур_284" data-name="Контур 284" d="M388.83,341.59c1.72,4.91,7.49,7.07,11.53,4a5.769,5.769,0,0,0,.47-.4c17.5-16.2,39.76-39.81,39.76-39.81l-3.75-4.75a247.541,247.541,0,0,0-37,26.25c-4,3.43-8.15,7.18-12.19,11.18h0Z" fill="#ffb573"/>
      <path id="Контур_285" data-name="Контур 285" d="M388.83,341.59c1.72,4.91,7.49,7.07,11.53,4a5.769,5.769,0,0,0,.47-.4c17.5-16.2,39.76-39.81,39.76-39.81l-3.75-4.75a247.541,247.541,0,0,0-37,26.25c-4,3.43-8.15,7.18-12.19,11.18h0Z" fill="#263238" opacity="0.8" style="isolation: isolate"/>
      <path id="Контур_286" data-name="Контур 286" d="M434.57,301.23a5.157,5.157,0,0,1,1.28-2.13c2.1-2.19,7.78-7.83,7.78-7.83l.51.51s-2.56,3-3.66,4.72.35.8,2.64.15,5.95.14,9.37,3.36c4,3.79,5.46,5.54,3.43,5.37s-5.22-2.11-5.22-2.11-8.67,1.59-12.19,5.3c-3.78,4-4.6-4.67-6-5.14C432.21,303,434.42,301.73,434.57,301.23Z" fill="#263238"/>
      <path id="Контур_287" data-name="Контур 287" d="M374.51,205.92c1.88,2.24,3.34,5,.84,8.25a3.811,3.811,0,0,0-.82,2.44c.06,1.41,1,2.73,5.32-.29,6.3-4.36,5.44-8.73,5.44-8.73-3.52-.82-6.08-8-7.16-12.07Z" fill="#ffb573"/>
      <path id="Контур_288" data-name="Контур 288" d="M378.19,201.79c.62,1.74-1.05,4.7-2.39,5.92a11.871,11.871,0,0,0-1.28-1.79l2.14-6.16A6.363,6.363,0,0,1,378.19,201.79Z" opacity="0.2" style="isolation: isolate"/>
      <path id="Контур_289" data-name="Контур 289" d="M359.48,186.83c-1.68,6.53.82,13.69,5.43,18.61,4.66-5.11,13.47-4,18.37-8.88,3.28-3.24,3.88-8.68,1.85-12.82-2.18-4.46-8.62-8.76-13.7-8.06C365.74,176.47,360.89,181.33,359.48,186.83Z" fill="#263238"/>
      <path id="Контур_290" data-name="Контур 290" d="M378.89,184.61a9.159,9.159,0,0,0-12.726-2.419l-.014.009c-5.91,4-4.81,14-2.17,19.65,2.9,6.32,11.37,6.58,15.32.38,2.65-4.13,2.09-6.95,1.11-13.66A9.271,9.271,0,0,0,378.89,184.61Z" fill="#ffb573"/>
      <path id="Контур_291" data-name="Контур 291" d="M367.32,198.61a2.349,2.349,0,0,1-2,0,14.506,14.506,0,0,0,1.21-3.85Z" fill="#ed893e"/>
      <path id="Контур_292" data-name="Контур 292" d="M372.45,198a.149.149,0,0,0-.068-.2l-.022-.009a.169.169,0,0,0-.21.09,4.281,4.281,0,0,1-3.12,2.4.18.18,0,0,0-.12.2h0a.15.15,0,0,0,.174.121h.006a4.972,4.972,0,0,0,.76-.21A4.53,4.53,0,0,0,372.45,198Z" fill="#263238"/>
      <path id="Контур_293" data-name="Контур 293" d="M367.7,179.15a7,7,0,0,0-1,2.8c7.81,1.8,13.57,10,15.79,17.77,2.11-2.78,6.25-6.18,7.86-9.52,1.79-3.75-.6-8-4.2-10.1a64.67,64.67,0,0,0-9.9-3.91A7.38,7.38,0,0,0,367.7,179.15Z" fill="#263238"/>
      <path id="Контур_294" data-name="Контур 294" d="M383.35,192.61a2.21,2.21,0,0,0-2.6-1.732l-.008,0c-1.65.36-2.25,2.67-2.15,4.15.14,1.63,1.41,2.76,2.81,1.74a5,5,0,0,0,2-3.24A2.357,2.357,0,0,0,383.35,192.61Z" fill="#ffb573"/>
      <path id="Контур_295" data-name="Контур 295" d="M370.48,192c.18.65,0,1.28-.46,1.4s-.91-.32-1.08-1,0-1.28.45-1.39S370.3,191.29,370.48,192Z" fill="#263238"/>
      <path id="Контур_296" data-name="Контур 296" d="M364.52,194.09c.18.65,0,1.28-.46,1.39s-.91-.32-1.09-1,0-1.28.46-1.4S364.35,193.42,364.52,194.09Z" fill="#263238"/>
      <path id="Контур_297" data-name="Контур 297" d="M363.63,193.09h-1.69S363.07,194.07,363.63,193.09Z" fill="#263238"/>
      <path id="Контур_298" data-name="Контур 298" d="M371.74,189a.337.337,0,0,0,.12-.12.34.34,0,0,0-.09-.46h0a3.822,3.822,0,0,0-3.53-.42.349.349,0,0,0-.17.44.34.34,0,0,0,.43.17,3.19,3.19,0,0,1,2.92.37A.351.351,0,0,0,371.74,189Z" fill="#263238"/>
      <path id="Контур_299" data-name="Контур 299" d="M361.69,192.57a.7.7,0,0,0,.1-.14,3.239,3.239,0,0,1,2.16-2,.331.331,0,0,0,.27-.38h0a.33.33,0,0,0-.393-.252l-.007,0a3.909,3.909,0,0,0-2.65,2.39.33.33,0,0,0,.158.439h0a.36.36,0,0,0,.36-.05Z" fill="#263238"/>
      <path id="Контур_300" data-name="Контур 300" d="M369.59,191H367.9S369,191.93,369.59,191Z" fill="#263238"/>
      <path id="Контур_301" data-name="Контур 301" d="M360.77,196.26c.77,4.11,4.1,9.78,7.65,12-2.39,1.81-6.67-.24-9.19-1.85a10.59,10.59,0,0,1-4.51-7.45,18,18,0,0,1,1.18-8.81,26.631,26.631,0,0,1,8.79-11.36c.76-.62,2.06-1.11,2.56-.27.35.58-.05,1.31-.43,1.86C363.13,185.72,360.23,189.48,360.77,196.26Z" fill="#263238"/>
      <path id="Контур_302" data-name="Контур 302" d="M379.33,203.77h-.06a.249.249,0,0,1-.18-.3c2.67-10.79-8.9-19-12.51-21.3a.25.25,0,0,1-.08-.34.239.239,0,0,1,.328-.087l.012.007c3.69,2.31,15.49,10.72,12.74,21.84A.25.25,0,0,1,379.33,203.77Z" fill="#263238"/>
      <path id="Контур_303" data-name="Контур 303" d="M381.36,195.95l-.22,3.81,1.02.84.5-1.17Z" fill="#ffc100"/>
      <path id="Контур_304" data-name="Контур 304" d="M398.21,207.4a4.709,4.709,0,0,0-4.52,1.26,9.093,9.093,0,0,0-2.3,5.05c-.37,2.88.36,5.8,1.14,8.61a29.207,29.207,0,0,1,1.58,8.6c3.06-1.67,7.51-5,11.79-5.44-.59-6.81-1.38-11.35-2.7-13.6a12.554,12.554,0,0,0-2.71-3.56A6.188,6.188,0,0,0,398.21,207.4Z" fill="#ffc100"/>
      <g id="Сгруппировать_101" data-name="Сгруппировать 101" opacity="0.1">
        <path id="Контур_305" data-name="Контур 305" d="M398.21,207.4a4.709,4.709,0,0,0-4.52,1.26,9.093,9.093,0,0,0-2.3,5.05c-.37,2.88.36,5.8,1.14,8.61a29.207,29.207,0,0,1,1.58,8.6c3.06-1.67,7.51-5,11.79-5.44-.59-6.81-1.38-11.35-2.7-13.6a12.554,12.554,0,0,0-2.71-3.56A6.188,6.188,0,0,0,398.21,207.4Z" fill="#fff"/>
      </g>
      <path id="Контур_306" data-name="Контур 306" d="M325.33,239.5s-7.55,1.25-7.65,1.59-.06,4.59-.06,4.59l6.78-2.57Z" fill="#ffb573"/>
      <path id="Контур_307" data-name="Контур 307" d="M317.62,245.68l-6.38-6.01,2.85-.83,4.73,2.57Z" fill="#ffb573"/>
    </g>
    <g id="freepik--character-1--inject-2">
      <path id="Контур_308" data-name="Контур 308" d="M125.01,398.18l7.13-.39.63,16.89-7.13.38Z" fill="#f7978d"/>
      <path id="Контур_309" data-name="Контур 309" d="M134.52,413.15c2.22,1.37,5.43,2.57,11.28,3.16,1.3.13,1.72,3.1-1.29,3.43s-8.26.8-10.44,1c-3.55.38-4.87.7-7.67,1.05a1.28,1.28,0,0,1-1.4-1.14l-.3-6.42a.509.509,0,0,1,.468-.549h.012l8.06-.88A2.055,2.055,0,0,1,134.52,413.15Z" fill="#263238"/>
      <path id="Контур_310" data-name="Контур 310" d="M125.33,406.89l7.14-.39-.33-8.7-7.13.39Z" opacity="0.2" style="isolation: isolate"/>
      <path id="Контур_311" data-name="Контур 311" d="M138,413.75a.918.918,0,0,0,.11-.92.65.65,0,0,0-.45-.43c-.91-.25-2.79,1.36-3,1.55a.182.182,0,0,0,0,.17.218.218,0,0,0,.15.13,8.894,8.894,0,0,0,1.93,0A2,2,0,0,0,138,413.75Zm-2.8.2c.76-.57,1.9-1.35,2.39-1.21a.32.32,0,0,1,.21.21.578.578,0,0,1,0,.61c-.3.39-1.24.53-2.56.41Z" fill="#ffc100"/>
      <path id="Контур_312" data-name="Контур 312" d="M134.88,414.21c.67-.51,1.57-2.13,1.33-2.89a.66.66,0,0,0-.66-.44.83.83,0,0,0-.69.31c-.65.78-.22,2.83-.24,2.91a.159.159,0,0,0,.09.13h.09Zm.63-3c.25,0,.36.12.34.21a3.3,3.3,0,0,1-1,2.31,3.869,3.869,0,0,1,.22-2.33.472.472,0,0,1,.35-.18Z" fill="#ffc100"/>
      <path id="Контур_313" data-name="Контур 313" d="M68.66,390.69l7.07,1.49-5.15,16-7.06-1.5Z" fill="#f7978d"/>
      <path id="Контур_314" data-name="Контур 314" d="M72.5,408.19c1.65,2,5.07,4.42,10.45,6.8,1.2.54.67,3.48-2.29,2.86s-8.83-2.11-11-2.56c-3.49-.74-4.84-.86-7.61-1.39h0a1.271,1.271,0,0,1-1.007-1.487l.007-.033,1.71-6.2a.519.519,0,0,1,.62-.37l7.94,1.68A2.067,2.067,0,0,1,72.5,408.19Z" fill="#263238"/>
      <path id="Контур_315" data-name="Контур 315" d="M66.01,398.94l7.06,1.49,2.66-8.24-7.07-1.49Z" opacity="0.2" style="isolation: isolate"/>
      <path id="Контур_316" data-name="Контур 316" d="M113.55,241s7.52,65.07,8.09,89.4c.53,22.41.16,72,.16,72l13-.61s5.41-46.07,7-68.66c1.42-20.67-3-86.81-3-86.81Z" fill="#ffc100"/>
      <path id="Контур_317" data-name="Контур 317" d="M116.64,266.67c1.16,13.46,2.74,30.78,4.18,45.27,3-8.38,4.8-29.48,1.24-42.41C119.91,261.66,118,263.39,116.64,266.67Z" opacity="0.2" style="isolation: isolate"/>
      <path id="Контур_318" data-name="Контур 318" d="M119.67,399.8l16.77-1.28-.77,5.51-14.11,1.17Z" fill="#263238"/>
      <path id="Контур_319" data-name="Контур 319" d="M98.83,243.51S86.69,303.4,82.5,327.37c-3.87,22.08-19,68.9-19,68.9L76.4,399s21.44-47.37,27.38-69.24c5.43-20,19-81.19,19-81.19Z" fill="#ffc100"/>
      <path id="Контур_320" data-name="Контур 320" d="M63.15,391.88l17.38,2.88-1.81,4.74-15.78-3.34Z" fill="#263238"/>
      <path id="Контур_321" data-name="Контур 321" d="M75,409.19a.909.909,0,0,0,.39-.86.611.611,0,0,0-.28-.55c-.78-.52-3.08.42-3.34.53a.23.23,0,0,0-.1.16.179.179,0,0,0,.1.15,9.29,9.29,0,0,0,1.83.65A2,2,0,0,0,75,409.19Zm-2.67-.73c.92-.35,2.22-.7,2.6-.4a.3.3,0,0,1,.13.27.6.6,0,0,1-.24.57c-.4.25-1.34.09-2.55-.42Z" fill="#ffc100"/>
      <path id="Контур_322" data-name="Контур 322" d="M71.89,408.63c.78-.28,2.16-1.52,2.16-2.33a.65.65,0,0,0-.49-.63.829.829,0,0,0-.75.09c-.86.54-1.12,2.6-1.14,2.69a.15.15,0,0,0,.06.14h.08ZM73.45,406c.24.09.29.21.27.31,0,.53-.94,1.5-1.66,1.89A3.741,3.741,0,0,1,73,406a.487.487,0,0,1,.39-.06Z" fill="#ffc100"/>
      <path id="Контур_323" data-name="Контур 323" d="M75.14,256.87c1.68-1.68,1.93-3.52,3-5.47.71-1.33-.93-.81.71-.64a8.013,8.013,0,0,1,1.76.61c1.42.55,2.79,1.23,4.23,1.74,1.23.44,3.44.24,4.49.85,1.7,1,.07,5.4-.29,6.82-.42,1.72,2.21,2.62,2.63.88.62-2.48,2.2-6.9.29-9.23-1.19-1.45-3-1.16-4.66-1.48-3.11-.6-6.29-3.44-9.55-3.1a2.45,2.45,0,0,0-2.21,1.61c-.52,1.14-.22,2.41-.9,3.61a8.26,8.26,0,0,1-1.3,1.71c-1.26,1.26.56,3.35,1.83,2.09Z" fill="#ffc100"/>
      <g id="Сгруппировать_102" data-name="Сгруппировать 102" opacity="0.3">
        <path id="Контур_324" data-name="Контур 324" d="M75.14,256.87c1.68-1.68,1.93-3.52,3-5.47.71-1.33-.93-.81.71-.64a8.013,8.013,0,0,1,1.76.61c1.42.55,2.79,1.23,4.23,1.74,1.23.44,3.44.24,4.49.85,1.7,1,.07,5.4-.29,6.82-.42,1.72,2.21,2.62,2.63.88.62-2.48,2.2-6.9.29-9.23-1.19-1.45-3-1.16-4.66-1.48-3.11-.6-6.29-3.44-9.55-3.1a2.45,2.45,0,0,0-2.21,1.61c-.52,1.14-.22,2.41-.9,3.61a8.26,8.26,0,0,1-1.3,1.71c-1.26,1.26.56,3.35,1.83,2.09Z"/>
      </g>
      <path id="Контур_325" data-name="Контур 325" d="M56.235,249.8l50,16.758a3.241,3.241,0,0,1,2.043,4.1l-8.969,26.757a5.589,5.589,0,0,1-7.076,3.523L46.717,285.683a5.591,5.591,0,0,1-3.524-7.077l8.969-26.757A3.241,3.241,0,0,1,56.235,249.8Z" fill="#ffc100"/>
      <path id="Контур_326" data-name="Контур 326" d="M56.235,249.8l50,16.758a3.241,3.241,0,0,1,2.043,4.1l-8.969,26.757a5.589,5.589,0,0,1-7.076,3.523L46.717,285.683a5.591,5.591,0,0,1-3.524-7.077l8.969-26.757A3.241,3.241,0,0,1,56.235,249.8Z" fill="#fff" opacity="0.3" style="isolation: isolate"/>
      <rect id="Прямоугольник_78" data-name="Прямоугольник 78" width="23.82" height="1" transform="translate(70.527 292.942) rotate(-70.71)" fill="#ffc100"/>
      <g id="Сгруппировать_103" data-name="Сгруппировать 103" opacity="0.3">
        <rect id="Прямоугольник_79" data-name="Прямоугольник 79" width="23.82" height="1" transform="translate(70.527 292.942) rotate(-70.71)"/>
      </g>
      <path id="Контур_327" data-name="Контур 327" d="M105.37,269.82,54.91,252.91a3,3,0,0,0-3.79,1.89l-.35,1a8.45,8.45,0,0,0,5.32,10.69L96.23,280a8.44,8.44,0,0,0,10.68-5.33h0l.35-1a3,3,0,0,0-1.828-3.829Z" opacity="0.2" style="isolation: isolate"/>
      <path id="Контур_328" data-name="Контур 328" d="M106.48,266.64,56,249.73a3,3,0,0,0-3.8,1.888v0l-.35,1a8.45,8.45,0,0,0,5.32,10.69L97.34,276.8A8.44,8.44,0,0,0,108,271.47l.35-1a3,3,0,0,0-1.844-3.821Z" fill="#ffc100"/>
      <path id="Контур_329" data-name="Контур 329" d="M106.48,266.64,56,249.73a3,3,0,0,0-3.8,1.888v0l-.35,1a8.45,8.45,0,0,0,5.32,10.69L97.34,276.8A8.44,8.44,0,0,0,108,271.47l.35-1a3,3,0,0,0-1.844-3.821Z" fill="#ffc100"/>
      <path id="Контур_330" data-name="Контур 330" d="M106.48,266.64,56,249.73a3,3,0,0,0-3.8,1.888v0l-.35,1a8.45,8.45,0,0,0,5.32,10.69L97.34,276.8A8.44,8.44,0,0,0,108,271.47l.35-1a3,3,0,0,0-1.844-3.821Z" fill="#fff" opacity="0.5" style="isolation: isolate"/>
      <rect id="Прямоугольник_80" data-name="Прямоугольник 80" width="11.9" height="5.66" rx="1.95" transform="matrix(0.318, -0.948, 0.948, 0.318, 58.88, 271.126)" fill="#ffc100"/>
      <rect id="Прямоугольник_81" data-name="Прямоугольник 81" width="11.9" height="5.66" rx="1.95" transform="translate(86.063 280.229) rotate(-71.49)" fill="#ffc100"/>
      <rect id="Прямоугольник_82" data-name="Прямоугольник 82" width="11.9" height="5.66" rx="1.95" transform="matrix(0.318, -0.948, 0.948, 0.318, 58.88, 271.126)" fill="#fff"/>
      <rect id="Прямоугольник_83" data-name="Прямоугольник 83" width="11.9" height="5.66" rx="1.95" transform="translate(86.063 280.229) rotate(-71.49)" fill="#fff"/>
      <path id="Контур_331" data-name="Контур 331" d="M147.86,192.3c.45.89,1,1.95,1.54,2.92s1.1,2,1.67,3c1.15,1.95,2.32,3.87,3.56,5.69a58.392,58.392,0,0,0,3.88,5.09,17.34,17.34,0,0,0,3.93,3.52l.2.12h.34a4,4,0,0,0,1.61-.37,19.63,19.63,0,0,0,4.71-3.16,48.7,48.7,0,0,0,4.72-4.59c.76-.84,1.52-1.67,2.25-2.54s1.48-1.79,2.13-2.59l.12-.16a3.89,3.89,0,0,1,6.46,4.33,63.011,63.011,0,0,1-9,12.52,29.132,29.132,0,0,1-6.78,5.38,14.642,14.642,0,0,1-5.21,1.73,10.94,10.94,0,0,1-3.33-.1,9.978,9.978,0,0,1-1.69-.45,4.074,4.074,0,0,1-.79-.32l-.6-.27a27.482,27.482,0,0,1-7.23-5.44,54.088,54.088,0,0,1-5.17-6c-1.54-2.07-3-4.17-4.3-6.33-.7-1.07-1.32-2.12-1.94-3.25s-1.21-2.16-1.84-3.41a6.026,6.026,0,0,1,10.75-5.45h0Z" fill="#263238"/>
      <path id="Контур_332" data-name="Контур 332" d="M181.73,202.42l5.67,2.06-.39-6.62s-5.9-2.09-6.68,1v1.45A2.191,2.191,0,0,0,181.73,202.42Z" fill="#f7978d"/>
      <path id="Контур_333" data-name="Контур 333" d="M193.23,202.91l1.2-5.66-7.42.6.39,6.63Z" fill="#f7978d"/>
      <g id="freepik--Character--inject-2--inject-2">
        <path id="Контур_334" data-name="Контур 334" d="M149.54,215.5c-.66-.77-1.3-1.53-1.92-2.3a63.177,63.177,0,0,1-5.22-7.84,80.648,80.648,0,0,1-4.1-8.23c-.17-.4-.33-.8-.49-1.2,3-1.81,9.48-.92,11.57,7.49A31.279,31.279,0,0,1,149.54,215.5Z" opacity="0.3" style="isolation: isolate"/>
        <path id="Контур_335" data-name="Контур 335" d="M136.55,251.49l-37.72-8c.44-3.43,3.52-14.24,5.92-28.33a225.768,225.768,0,0,0,2.59-29.36v-.09a4.61,4.61,0,0,1,4.855-4.351h.1c2.35.14,5.28.41,8.11.86a146.176,146.176,0,0,1,16.05,3.4,43.139,43.139,0,0,1,5.1,2,7,7,0,0,1,4.21,5.82C146.43,201.76,146.11,217.89,136.55,251.49Z" fill="#fff"/>
        <path id="Контур_336" data-name="Контур 336" d="M131.79,191.1l-1.08,2.16a.911.911,0,0,1-.83.6L128,193.7c-.27,0-.49-.24-.59-.59l-.76-2.59,2.8-1.74Z" fill="#ffc100"/>
        <path id="Контур_337" data-name="Контур 337" d="M120,181.59c-3-.48-6.07-.75-8.55-.91h-.22a4.859,4.859,0,0,0-5,4.69,240.591,240.591,0,0,1-2.72,31c-3.67,26.29-7.3,31.52-7.3,31.52L113,251c5.09-23.88,9-56.5,8.6-69.19Z" fill="#263238"/>
        <path id="Контур_338" data-name="Контур 338" d="M104.07,212.67a236.6,236.6,0,0,0,2-23.65,2.028,2.028,0,0,1,.26-.23c2.11-1.8,7.38,2.51,5.94,10.58C110.94,207,107.21,211.64,104.07,212.67Z" opacity="0.3" style="isolation: isolate"/>
        <path id="Контур_339" data-name="Контур 339" d="M139.39,257l-10.16-2.72c6.38-44.75,7.87-56.64,6.43-69.18a73.794,73.794,0,0,1,7.43,2.38,8.177,8.177,0,0,1,4.58,6.64C148.53,201.1,143.21,219,139.39,257Z" fill="#263238"/>
        <path id="Контур_340" data-name="Контур 340" d="M127.68,238.51a2.149,2.149,0,0,1,2.875.99l.005.01h0a2.16,2.16,0,1,1-2.906-.942l.016-.008Z" fill="#263238"/>
        <path id="Контур_341" data-name="Контур 341" d="M126.41,241.6a2.51,2.51,0,0,1,1.088-3.379h0a2.468,2.468,0,0,1,1.92-.15,2.51,2.51,0,1,1-3,3.53Z" fill="#fff"/>
        <path id="Контур_342" data-name="Контур 342" d="M129.71,188.83c-8.05-1.25-9.93-6.62-9.93-6.62,4.23-2.75,4.88-12.46,4.79-17.88l3.53,4.47,4.82,6.09a23.428,23.428,0,0,0-.87,2.29c-1,3.1-.77,6.17,3.66,8.26C135.71,185.44,136.57,189.87,129.71,188.83Z" fill="#f7978d"/>
        <path id="Контур_343" data-name="Контур 343" d="M118.28,181.26l2.64-.38a24.779,24.779,0,0,0,8.26,7.84,9.507,9.507,0,0,0-4.33,3.49C117,187.55,118.28,181.26,118.28,181.26Z" fill="#fff"/>
        <path id="Контур_344" data-name="Контур 344" d="M135.77,185l-2.18-1s-1.93,4.56-4.42,4.73c3.77,2.46,4,4.63,4,4.63C139.49,192.72,135.77,185,135.77,185Z" fill="#fff"/>
        <path id="Контур_345" data-name="Контур 345" d="M132.31,176.45l-4.62-5.8a10.571,10.571,0,0,0-.38,2.24c-.15,2.3,2.24,5.21,4.32,6.13Z" opacity="0.2" style="isolation: isolate"/>
        <path id="Контур_346" data-name="Контур 346" d="M137.38,165.86s.25,3.6,4,2.22c.16-3.83,1.42-3.54,2.72-5.79a8.309,8.309,0,0,0,.5-8.51l-2.39-1.21C132.89,149.68,137.38,165.86,137.38,165.86Z" fill="#263238"/>
        <path id="Контур_347" data-name="Контур 347" d="M137.38,165.86s.25,3.6,4,2.22c.16-3.83,1.42-3.54,2.72-5.79a8.309,8.309,0,0,0,.5-8.51l-2.39-1.21C132.89,149.68,137.38,165.86,137.38,165.86Z" fill="#fff" opacity="0.6" style="isolation: isolate"/>
        <path id="Контур_348" data-name="Контур 348" d="M127.64,151.3a9.449,9.449,0,0,1,13.34-.76c5.81,4.93,3.77,15.43.5,21.12a9.34,9.34,0,0,1-16.52-.34c-2.41-4.66-1.13-8.67.48-15.67A9.481,9.481,0,0,1,127.64,151.3Z" fill="#f7978d"/>
        <path id="Контур_349" data-name="Контур 349" d="M124.3,162s.94,3.11,4.34,1.45c-.59-3.36.69-3.27,1.53-5.4a6.839,6.839,0,0,0-1.15-7.54l-2.57-.75C114.23,148.61,124.3,162,124.3,162Z" fill="#263238"/>
        <path id="Контур_350" data-name="Контур 350" d="M124.3,162s.94,3.11,4.34,1.45c-.59-3.36.69-3.27,1.53-5.4a6.839,6.839,0,0,0-1.15-7.54l-2.57-.75C114.23,148.61,124.3,162,124.3,162Z" fill="#fff" opacity="0.6" style="isolation: isolate"/>
        <path id="Контур_351" data-name="Контур 351" d="M136.43,142.81a3.8,3.8,0,0,0-3.76.67c-.67.58-1.32,1.47-2.19,1.3a3.185,3.185,0,0,1-1.14-.71c-1.4-1-3.44-.57-4.8.49a14.418,14.418,0,0,0-3.12,4.08,9.381,9.381,0,0,1-3.47,3.75,10.921,10.921,0,0,0,8.92.22,5.894,5.894,0,0,1-3.12,2,12.122,12.122,0,0,0,8.5-.69c1.49-.71,2.87-1.74,4.5-2s3.63.6,3.78,2.24a1.611,1.611,0,0,1,2.126-.816l.094.046a4.422,4.422,0,0,1,1.74,2,5.114,5.114,0,0,0,1.65,2.07,1.69,1.69,0,0,0,2.34-.44,2.51,2.51,0,0,1-2.3-2.31,4.288,4.288,0,0,0,2.89.47c-1.3-.08-3.85-4.73-4.24-6a6.069,6.069,0,0,0-2.07-3.24c-1.22-.84-2.45.62-3.6,0S137.73,143.3,136.43,142.81Z" fill="#263238"/>
        <path id="Контур_352" data-name="Контур 352" d="M134.81,168.07a4.592,4.592,0,0,1-1.63-3.11l2,.8c.85.33,3.29,1.36,2.75,2.7S135.46,168.6,134.81,168.07Z" fill="#263238"/>
        <path id="Контур_353" data-name="Контур 353" d="M140.55,170.27a4.593,4.593,0,0,0,3.22-1.42l-2.09-.64c-.87-.27-3.42-1-3.84.41S139.7,170.28,140.55,170.27Z" fill="#263238"/>
        <path id="Контур_354" data-name="Контур 354" d="M137.78,168a3.311,3.311,0,0,0,2.76.36,21.5,21.5,0,0,1-1.24-5.65Z" fill="#ff5652"/>
        <path id="Контур_355" data-name="Контур 355" d="M124.7,157.18c1.7.57,2.37,3.42,2.29,5.2-.09,2-1.4,3.23-2.87,2a6.681,6.681,0,0,1-2.07-4C121.79,158.38,123,156.6,124.7,157.18Z" fill="#f7978d"/>
        <path id="Контур_356" data-name="Контур 356" d="M136,160.34c.36.13.5.73.35,1.24s-.58.86-.94.74-.48-.65-.36-1.22S135.63,160.22,136,160.34Z" fill="#263238"/>
        <path id="Контур_357" data-name="Контур 357" d="M142.31,162.08c.37.12.52.66.36,1.22s-.59.93-.95.8-.52-.67-.36-1.23S142,162,142.31,162.08Z" fill="#263238"/>
        <path id="Контур_358" data-name="Контур 358" d="M137.15,171.09a.19.19,0,0,0,.2-.14.179.179,0,0,0-.14-.2,4.791,4.791,0,0,1-3.51-2.37.172.172,0,1,0-.31.15,5,5,0,0,0,3.1,2.42A4.1,4.1,0,0,1,137.15,171.09Z" fill="#263238"/>
        <path id="Контур_359" data-name="Контур 359" d="M142.09,159.67a.349.349,0,0,0,.21.25,2.879,2.879,0,0,1,1.85,1.72.32.32,0,0,0,.381.245l.019,0h0a.35.35,0,0,0,.23-.42h0a3.528,3.528,0,0,0-2.28-2.19.351.351,0,0,0-.43.22A.285.285,0,0,0,142.09,159.67Z" fill="#263238"/>
        <path id="Контур_360" data-name="Контур 360" d="M134.8,157.89a.37.37,0,0,0,.32.06,2.909,2.909,0,0,1,2.52.23.33.33,0,0,0,.46-.06h0a.34.34,0,0,0-.07-.47h0a3.489,3.489,0,0,0-3.14-.32.331.331,0,0,0-.216.414l.006.016A.414.414,0,0,0,134.8,157.89Z" fill="#263238"/>
        <path id="Контур_361" data-name="Контур 361" d="M80.75,244.9l-1.3-.14c-3.06,1.47.26,7.13.26,7.13l9-1.1-2.61-3A8.33,8.33,0,0,0,80.75,244.9Z" fill="#f7978d"/>
        <path id="Контур_362" data-name="Контур 362" d="M89,254.67l-.3-3.89-9,1.1.5,4.61a1.336,1.336,0,0,0,0,.2,1.37,1.37,0,0,0,1.658,1l.012,0L88,256.08A1.37,1.37,0,0,0,89,254.67Z" fill="#f7978d"/>
        <path id="Контур_363" data-name="Контур 363" d="M133.18,228.59s-3.13,7.53-4.51,6.49-4.56-6.8-4.57-6.92S128,193.7,128,193.7l1.87.16C129.11,197.71,133.18,228.59,133.18,228.59Z" fill="#ffc100"/>
      </g>
      <path id="Контур_364" data-name="Контур 364" d="M81.64,210C77.9,215.32,77,240.42,78,246.87a4.91,4.91,0,0,1,6.41-.8c.09-4.42,3.67-20.21,5.21-26.8a8,8,0,0,1,3.07-4.61c6.6-4.78,18.55-14.24,19.87-18,2.13-6,.3-18.3-5-14.52C102.54,185.75,84.61,205.71,81.64,210Z" fill="#263238"/>
    </g>
    <g id="freepik--Birds--inject-2">
      <path id="Контур_365" data-name="Контур 365" d="M380.85,83.45a12.979,12.979,0,0,1-2.09-.68c-1.26-.49-2.87-1.32-4.56-2.13a13.856,13.856,0,0,0-4.46-1.34c-1.19-.13-2,0-2.11-.31s.59-.89,2-1.16a9.186,9.186,0,0,1,5.43.93,16.76,16.76,0,0,1,4.23,3.14C380.27,82.83,380.85,83.45,380.85,83.45Z" fill="#ffc100"/>
      <path id="Контур_366" data-name="Контур 366" d="M388.19,77.54l-1.51.59c-.9.37-2,.89-3.3,1.44-2.53,1.12-4.69,2.28-5,1.77-.16-.23.17-.8.9-1.5a11.273,11.273,0,0,1,3.32-2.18,7.576,7.576,0,0,1,4-.56,5.993,5.993,0,0,1,1.21.29Z" fill="#ffc100"/>
      <path id="Контур_367" data-name="Контур 367" d="M367.23,87.86l-.41-.25c-.26-.17-.65-.39-1.12-.64a23.99,23.99,0,0,0-3.7-1.61c-2.94-1.06-5.57-.82-5.65-1.27,0-.2.6-.54,1.74-.7a9.906,9.906,0,0,1,4.42.49,8.811,8.811,0,0,1,3.68,2.48,6.75,6.75,0,0,1,.8,1.08Z" fill="#ffc100"/>
      <path id="Контур_368" data-name="Контур 368" d="M370.12,81.78l-1.06.61-2.35,1.31c-1.77,1-3.14,2.11-3.48,1.81-.15-.15,0-.62.45-1.23a7.233,7.233,0,0,1,2.28-2,6,6,0,0,1,2.92-.7A4.964,4.964,0,0,1,370.12,81.78Z" fill="#ffc100"/>
      <path id="Контур_369" data-name="Контур 369" d="M364.79,78.32s-1-.35-2.52-1-3.57-1.55-5.82-2.29a16,16,0,0,0-5.89-.82c-1.54.09-2.52.39-2.66.11s.67-1,2.39-1.55a11.747,11.747,0,0,1,6.81.28,17.115,17.115,0,0,1,5.72,3.39A24.124,24.124,0,0,1,364.79,78.32Z" fill="#ffc100"/>
      <path id="Контур_370" data-name="Контур 370" d="M371.55,69.73l-.56.16c-.37.09-.88.25-1.49.44a42.24,42.24,0,0,0-4.5,1.78c-3.42,1.53-5.62,3.8-6.09,3.44-.22-.17.06-1,.93-2.08a12.131,12.131,0,0,1,4.29-3.25,10.768,10.768,0,0,1,5.28-.92,8.413,8.413,0,0,1,1.6.27Z" fill="#ffc100"/>
      <path id="Контур_371" data-name="Контур 371" d="M139.93,108.71a14.324,14.324,0,0,1-2.09-.68c-1.26-.49-2.88-1.32-4.56-2.14a14.147,14.147,0,0,0-4.47-1.34c-1.19-.13-2,0-2.11-.31s.59-.89,2-1.15a9.1,9.1,0,0,1,5.43.93,16.345,16.345,0,0,1,4.23,3.13C139.35,108.08,139.93,108.71,139.93,108.71Z" fill="#ffc100"/>
      <path id="Контур_372" data-name="Контур 372" d="M147.27,102.8l-1.52.59c-.9.36-2,.88-3.3,1.44-2.53,1.11-4.68,2.27-5,1.77-.17-.24.17-.8.89-1.51a11.412,11.412,0,0,1,3.32-2.18,7.73,7.73,0,0,1,4-.56,6.44,6.44,0,0,1,1.2.29A4.091,4.091,0,0,1,147.27,102.8Z" fill="#ffc100"/>
      <path id="Контур_373" data-name="Контур 373" d="M126.31,113.11l-.42-.25c-.26-.17-.64-.39-1.11-.64a24.925,24.925,0,0,0-3.7-1.61c-2.94-1-5.58-.82-5.66-1.27,0-.2.61-.54,1.74-.7a9.852,9.852,0,0,1,4.43.5,8.771,8.771,0,0,1,3.68,2.47,6.59,6.59,0,0,1,.79,1.08Z" fill="#ffc100"/>
      <path id="Контур_374" data-name="Контур 374" d="M129.19,107l-1.05.61L125.79,109c-1.78,1-3.14,2.11-3.48,1.8-.16-.14,0-.61.45-1.23a7.122,7.122,0,0,1,2.28-1.94,5.94,5.94,0,0,1,2.91-.71A5,5,0,0,1,129.19,107Z" fill="#ffc100"/>
    </g>
  </g>
</svg>
