<svg xmlns="http://www.w3.org/2000/svg" width="22.281" height="22.288" viewBox="0 0 22.281 22.288">
  <path id="Контур_183" data-name="Контур 183" d="M17.684,181.949c-.806,0-1.612.009-2.417,0a1.026,1.026,0,0,1-1.15-1.165c-.009-1.579-.027-3.158.016-4.735a1.6,1.6,0,0,1,.41-1q7.44-7.49,14.919-14.941a1.044,1.044,0,0,1,1.674-.018q2.417,2.4,4.815,4.812a1.068,1.068,0,0,1-.038,1.747q-6.5,6.506-13.013,13.01c-.616.616-1.2,1.265-1.86,1.836a1.93,1.93,0,0,1-1.039.436C19.233,181.994,18.456,181.949,17.684,181.949Zm9.549-16.723c-.093.087-.214.194-.328.308-3.291,3.29-6.564,6.6-9.886,9.856a2.429,2.429,0,0,0-.877,2.137c.079.774.016,1.562.016,2.377,1.061,0,2.046-.016,3.03.008a1.23,1.23,0,0,0,.993-.4q5.182-5.212,10.39-10.4c.1-.1.191-.213.259-.289Zm6.555.581-3.52-3.524-1.419,1.4,3.519,3.526Z" transform="translate(-14.104 -159.676)" fill="#e0e1e2"/>
</svg>
