<svg xmlns="http://www.w3.org/2000/svg" xmlns:xlink="http://www.w3.org/1999/xlink" width="26" height="26" viewBox="0 0 26 26">
  <defs>
    <clipPath id="clip-path">
      <rect id="Прямоугольник_13" data-name="Прямоугольник 13" width="26" height="26" transform="translate(0 -0.292)" fill="#1d2025"/>
    </clipPath>
  </defs>
  <g id="Сгруппировать_10" data-name="Сгруппировать 10" transform="translate(-491 -191.708)" opacity="0.13">
    <g id="Сгруппировать_9" data-name="Сгруппировать 9" transform="translate(491 192)">
      <g id="Сгруппировать_8" data-name="Сгруппировать 8" transform="translate(0)" clip-path="url(#clip-path)">
        <path id="Контур_6" data-name="Контур 6" d="M516.7,198.34a.8.8,0,0,0-.459-.641l-12.051-5.624a.8.8,0,0,0-.679,0L491.464,197.7a.8.8,0,0,0-.459.641c0,.006,0,.083,0,.087v13.658a.8.8,0,0,0,.505.746l12.051,4.82a.8.8,0,0,0,.6,0l12.051-4.82a.8.8,0,0,0,.505-.746V198.427s0-.081-.005-.087Zm-12.849-4.65,10.03,4.68-3.862,1.545L499.8,195.58Zm-6.01,2.8,10.06,4.268-4.05,1.62-10.03-4.012Zm-5.238,3.119,10.444,4.178v11.927l-10.444-4.177Zm12.051,16.1V203.791l10.444-4.178v11.927Zm0,0" transform="translate(-491 -192)" fill="#1d2025"/>
      </g>
    </g>
  </g>
</svg>
