<svg xmlns="http://www.w3.org/2000/svg" width="27.03" height="27.03" viewBox="0 0 27.03 27.03">
  <g id="Сгруппировать_62" data-name="Сгруппировать 62" transform="translate(-182.987 -185.984)">
    <path id="Контур_189" data-name="Контур 189" d="M196.489,213.014a13.515,13.515,0,1,1,13.527-13.475A13.536,13.536,0,0,1,196.489,213.014Zm-.857-25.2a11.606,11.606,0,0,0-10.817,10.742c.031.018.062.05.093.051.365.011.731.011,1.1.025a.873.873,0,1,1-.023,1.737c-.395.01-.79,0-1.188,0,.334,6.2,5.861,10.751,10.833,10.792,0-.27,0-.541,0-.812,0-.888.283-1.314.883-1.307.578.007.858.422.86,1.275,0,.287,0,.575,0,.864a11.618,11.618,0,0,0,10.819-10.816c-.38,0-.759.007-1.138,0-.612-.013-1-.345-1.005-.853-.009-.531.386-.875,1.028-.886.377-.007.753,0,1.133,0-.335-6.2-5.858-10.749-10.833-10.791q0,.461,0,.922c0,.786-.307,1.2-.883,1.2-.552-.007-.856-.417-.86-1.166C195.631,188.464,195.632,188.14,195.632,187.814Z" transform="translate(0 0)" fill="#e0e1e2"/>
    <path id="Контур_190" data-name="Контур 190" d="M298.046,238.856q0-1.647,0-3.294c0-.8.3-1.218.857-1.227s.88.417.881,1.2c0,2.049-.01,4.1.021,6.148a1.368,1.368,0,0,0,.353.848c1.244,1.29,2.526,2.545,3.789,3.818a.873.873,0,0,1,.073,1.345.828.828,0,0,1-1.187-.031c-1.513-1.489-3.021-2.982-4.5-4.5a1.357,1.357,0,0,1-.274-.849C298.028,241.161,298.046,240.008,298.046,238.856Z" transform="translate(-102.414 -43.039)" fill="#e0e1e2"/>
  </g>
</svg>
