<svg xmlns="http://www.w3.org/2000/svg" xmlns:xlink="http://www.w3.org/1999/xlink" width="30" height="34" viewBox="0 0 30 34">
  <defs>
    <clipPath id="clip-path">
      <rect id="Прямоугольник_41" data-name="Прямоугольник 41" width="30" height="34" fill="#e0e1e2"/>
    </clipPath>
  </defs>
  <g id="Сгруппировать_59" data-name="Сгруппировать 59" transform="translate(-505 -191.667)">
    <g id="Сгруппировать_58" data-name="Сгруппировать 58" transform="translate(505 191.667)">
      <g id="Сгруппировать_57" data-name="Сгруппировать 57" transform="translate(0 0)" clip-path="url(#clip-path)">
        <path id="Контур_185" data-name="Контур 185" d="M531.06,199.06a14.847,14.847,0,0,0-8.535-4.406l.942-.971a1.007,1.007,0,0,0,0-1.394.938.938,0,0,0-1.353,0l-2.424,2.5a1.008,1.008,0,0,0,0,1.394l2.424,2.5a.937.937,0,0,0,1.353,0,1.007,1.007,0,0,0,0-1.395l-.54-.556a13.571,13.571,0,1,1-15.768,13.35,13.792,13.792,0,0,1,2.466-7.92,13.219,13.219,0,0,1,6.3-4.9.994.994,0,0,0,.58-1.26.95.95,0,0,0-1.223-.6,15.131,15.131,0,0,0-7.211,5.607,15.94,15.94,0,0,0,1.6,20.086,14.809,14.809,0,0,0,21.385,0,15.916,15.916,0,0,0,0-22.033Zm0,0" transform="translate(-505.225 -191.656)" fill="#e0e1e2"/>
      </g>
    </g>
    <path id="Контур_186" data-name="Контур 186" d="M567.414,292.489a9.833,9.833,0,1,0,9.833-9.833,9.844,9.844,0,0,0-9.833,9.833Zm9.833-7.919a7.919,7.919,0,1,1-7.919,7.919,7.928,7.928,0,0,1,7.919-7.919Zm0,0" transform="translate(-57.104 -82.341)" fill="#e0e1e2"/>
    <path id="Контур_187" data-name="Контур 187" d="M649.975,330.242a8.139,8.139,0,0,1-2.055-.952.6.6,0,0,1-.12-.559.849.849,0,0,1,.554-.67,1.578,1.578,0,0,1,1.428.207.957.957,0,0,0,1.146-1.533,3.486,3.486,0,0,0-1.216-.564v-.257a.957.957,0,0,0-1.914,0v.316a2.742,2.742,0,0,0-1.879,2.146,2.458,2.458,0,0,0,.82,2.42,9.465,9.465,0,0,0,2.6,1.251.975.975,0,0,1,.717,1.156,1.317,1.317,0,0,1-1.306,1.11,2.259,2.259,0,0,1-1.64-.428.957.957,0,1,0-1.048,1.6,3.894,3.894,0,0,0,1.737.7v.287a.957.957,0,0,0,1.914,0v-.385a3.141,3.141,0,0,0,1.218-.7,3.286,3.286,0,0,0,1.012-1.867,2.9,2.9,0,0,0-1.967-3.278Zm0,0" transform="translate(-128.664 -121.079)" fill="#e0e1e2"/>
  </g>
</svg>
